<svg width="149" height="293" viewBox="0 0 149 293" fill="none" xmlns="http://www.w3.org/2000/svg">
<path d="M15.9 203.241L13 177.224C38.4964 160 129.496 162 144.479 176.5L140.938 203.241C138.223 205.095 135.164 206.784 131.832 208.309L120.269 289.174C97.7999 293.523 53.8319 293.118 38.3692 287.32L23.8688 208.071C20.2448 206.486 15.9 203.966 15.9 203.241Z" fill="#AA7622"/>
<path d="M13 177.224L15.9 203.241C15.9 203.966 20.2448 206.486 23.8688 208.071M13 177.224C21.4964 194.5 119.496 205 144.479 176.5M13 177.224C38.4964 160 129.496 162 144.479 176.5M23.8688 208.071C43.9964 224 111.996 223 140.938 203.241L144.479 176.5M23.8688 208.071L38.3692 287.32C53.8319 293.118 97.7999 293.523 120.269 289.174L131.866 208.071" stroke="black" stroke-width="1.44964"/>
<path d="M22.9965 183C22.9965 180.305 27.9052 180.446 30.0183 180.269C31.6116 180.136 33.0129 180.342 34.5044 180.847C35.5941 181.216 36.6289 181.747 37.8203 181.767C40.1298 181.806 41.3232 179.626 43.3792 178.87C45.448 178.109 47.6095 177.388 49.87 177.363C51.0264 177.35 52.2123 177.268 53.3159 177.627L53.3564 177.64C54.0987 177.882 54.444 177.994 55.1147 177.51C57.0659 176.1 58.8632 173.599 61.7681 174.055C62.4455 174.161 62.9471 174.581 63.5669 174.799C64.3823 175.085 65.2507 175.054 66.1025 175.161C68.4726 175.458 70.8867 175.425 73.276 175.425C75.3158 175.425 77.3222 176.317 79.1384 177.079C81.4212 178.036 84.9464 178.382 87.363 177.852C88.7477 177.548 90.0135 176.744 91.4482 176.668C92.7455 176.599 93.3518 177.063 94.4931 177.539C97.5013 178.793 101.393 178.757 104.527 177.93C107.23 177.217 110.092 175.953 112.925 175.953C114.272 175.953 115.193 176.044 116.382 176.658C117.327 177.146 118.181 177.884 119.199 178.244C121.833 179.174 123.988 177.39 126.362 176.854C127.076 176.693 134.955 181.188 136.479 182.022C136.485 182.015 136.491 182.007 136.496 182C136.837 182.21 136.793 182.194 136.479 182.022C126.905 194.24 51.4793 199.99 22.9965 183Z" fill="#39280C"/>
<path d="M22.9965 183C22.9965 180.305 27.9052 180.446 30.0183 180.269C31.6116 180.136 33.0129 180.342 34.5044 180.847C35.5941 181.216 36.6289 181.747 37.8203 181.767C40.1298 181.806 41.3232 179.626 43.3792 178.87C45.448 178.109 47.6095 177.388 49.87 177.363C51.0264 177.35 52.2123 177.268 53.3159 177.627C54.0863 177.878 54.432 178.003 55.1147 177.51C57.0659 176.1 58.8632 173.599 61.7681 174.055C62.4455 174.161 62.9471 174.581 63.5669 174.799C64.3823 175.085 65.2507 175.054 66.1025 175.161C68.4726 175.458 70.8867 175.425 73.276 175.425C75.3158 175.425 77.3222 176.317 79.1384 177.079C81.4212 178.036 84.9464 178.382 87.363 177.852C88.7477 177.548 90.0134 176.744 91.4482 176.668C92.7455 176.599 93.3518 177.063 94.4931 177.539C97.5013 178.793 101.393 178.757 104.527 177.93C107.23 177.217 110.092 175.953 112.925 175.953C114.272 175.953 115.193 176.044 116.382 176.658C117.327 177.146 118.181 177.884 119.199 178.244C121.833 179.174 123.988 177.39 126.362 176.854C127.223 176.66 138.496 183.233 136.496 182C126.996 194.233 51.4965 200 22.9965 183Z" stroke="black" stroke-width="3" stroke-linecap="round"/>
<g filter="url(#filter0_d_10_271)">
<path d="M74.886 73C155.446 90.6246 139.935 150.548 124.923 183.783C94.1003 192.646 55.5382 188.147 36.8576 185.294C20.8456 168.676 -7.17531 95.1566 74.886 73Z" fill="#316322"/>
<path d="M74.886 73C64.7117 89.1139 48.3662 134.736 64.3781 188.315M74.886 73C101.406 104.221 99.0707 159.277 92.8994 188.315M74.886 73C155.446 90.6246 139.935 150.548 124.923 183.783C94.1003 192.646 55.5382 188.147 36.8576 185.294C20.8456 168.676 -7.17531 95.1566 74.886 73Z" stroke="black"/>
</g>
<path d="M78.7738 74.7648C75.6749 75.7183 71.9676 73.892 68.7875 73.892C69.0947 73.2776 69.1155 73.5615 69.0185 72.7367C68.966 72.2906 68.8751 71.6871 68.7746 71.2349C68.4204 69.641 68.3254 67.7054 68.3254 66.062C68.3254 63.2383 67.6322 60.5305 67.6322 57.7187C67.6322 53.2192 65.1666 49.4599 64.2179 45.1908C63.9086 43.7992 63.4734 42.3272 63.4734 40.9036C63.4734 40.1591 63.5724 40.1591 64.2934 40.1591H64.2949C66.5775 40.1591 68.8438 40.2372 71.0979 39.9152C72.0673 39.7767 73.5237 38.3492 74.4481 38.5546C74.9165 38.6587 75.2665 41.6265 75.4365 42.2385C75.7283 43.2892 76.0776 44.2504 76.2965 45.3448C76.5503 46.614 76.412 47.9965 76.412 49.2855C76.412 51.7119 76.5464 54.0945 76.6431 56.5121C76.7238 58.5297 77.3559 60.173 78.0569 61.9953L78.0807 62.0572C78.605 63.4203 80.8019 64.5711 80.8019 66.1519C80.8019 67.6367 80.8249 69.0646 81.0201 70.529C81.1026 71.1477 82.7635 73.7699 81.7261 73.892C81.3638 73.9346 80.8624 74.2543 80.4682 74.3669C79.9535 74.514 79.3426 74.5898 78.7738 74.7648Z" fill="#31240F" stroke="#39280C" stroke-width="3" stroke-linecap="round"/>
<g filter="url(#filter1_d_10_271)">
<path d="M73.0654 32.1124C74.3987 23.8145 71.313 17.7557 91.5 2C94.3134 7.97849 89.0879 21.9959 82.0078 30.7323C88.172 24.7406 99.4145 17.3405 115.5 16C111.743 26.6931 101.061 32.2008 91.7125 35.1256C102.512 32.9295 117.567 31.1534 123 35.5C116.254 43.6659 101.441 44.4905 90.5546 43.1079C102.805 46.4945 116.083 52.3008 118 61.5C107.229 63.2007 94.232 56.2301 85.0222 49.4493C92.5465 57.3899 101.381 69.4467 103 77C92.1518 77 79.8854 58.4062 73.916 47.6092C78.1875 57.2261 83.0318 74.0917 76 84C69.5025 72.6292 66.5231 55.5124 66.2583 46.2741C63.4568 58.3139 46.5792 74.6052 40.9999 76C39.461 69.973 48.4374 56.7455 59.6629 42.9125C50.2448 52.0949 28.4217 58.9261 24.4999 57.5C24.4372 49.115 35.9999 39.4591 61.4059 36C50.9373 35.6667 26.2 36 23 26C33.4 22 55.8062 28.5 64.2093 34C55.9729 28.5 35.1 24.3 39.5 7.5C47.3174 6.14045 59.4188 16.122 65.1291 26.9773C61.5985 18.1576 58.4786 8.17087 64.2093 1C71.8951 3.77056 73.2776 19.824 73.0092 32.1096C73.0279 32.1105 73.0466 32.1114 73.0654 32.1124Z" fill="#F3F4ED"/>
<path d="M82 37.5C91.8333 35.6667 110.3 30.8 115.5 16C96.3 17.6 84.0001 27.8333 79.0001 34C87.5001 26 94.7 8.8 91.5 2C71 18 74.5 24 73.0001 32.5C73.3063 20.1667 71.9768 3.8 64.2093 1C57.1767 9.8 63.4729 22.8407 67.5 32.7611M82 37.5C89.6666 35.1667 115.5 29.5 123 35.5C113.5 47 88 43.9401 80 40.6601M82 37.5C82.2128 38.8835 81.4064 39.9272 80 40.6601M82 37.5C78.979 31.7327 72.4886 31.3959 67.5 32.7611M80 40.6601C93.6667 43.2734 115.5 49.5 118 61.5C102.8 63.9 83.1667 49.0312 76 41.7968M80 40.6601C78.9452 41.2098 77.5528 41.5846 76 41.7968M76 41.7968C82.3334 44.6978 100.6 65.8 103 77C89.7999 77 74.5 49.4701 71 41.9552M76 41.7968C74.4359 42.0105 72.7089 42.0591 71 41.9552M71 41.9552C75 48.3034 84.8001 71.6 76 84C68.0001 70 65.3334 47.2895 66.5 41.2979M71 41.9552C69.0542 41.8368 68.1319 41.7934 66.5 41.2979M66.5 41.2979C68.6667 53.1986 47.3999 74.4 40.9999 76C39.3333 69.4727 50 54.5 62.5 39.4591M66.5 41.2979C65.0872 40.8689 63.5797 40.2202 62.5 39.4591M62.5 39.4591C61.6481 38.8585 61.0625 38.1879 61 37.5C60.7851 37.0703 60.9498 36.5482 61.4059 36M62.5 39.4591C55.8333 50.3061 28.8999 59.1 24.4999 57.5C24.4372 49.115 35.9999 39.4591 61.4059 36M61.4059 36C50.9373 35.6667 26.2 36 23 26C33.4 22 55.8062 28.5 64.2093 34M61.4059 36C61.9613 35.3324 62.9489 34.6259 64.2093 34M64.2093 34C55.9729 28.5 35.1 24.3 39.5 7.5C48.7 5.9 63.8333 20.0074 67.5 32.7611M64.2093 34C65.1709 33.5225 66.2914 33.0918 67.5 32.7611" stroke="black"/>
</g>
<g filter="url(#filter2_d_10_271)">
<path d="M61 37C63 32 77.5 29 82 37.5C81.5 43.5 62 43 61 37Z" fill="#DBCB37"/>
<path d="M61 37C63 32 77.5 29 82 37.5C81.5 43.5 62 43 61 37Z" stroke="black"/>
</g>
<path d="M132.059 55.0439C136.368 55.1545 137.48 49.6175 137 40.5C138.5 48 143.3 53 146.5 53C141.946 53.3253 141.272 59.5129 141.627 63.8751C141.925 64.7578 142.066 65.6438 142 66.5C141.844 65.7837 141.708 64.8776 141.627 63.8751C140.203 59.6571 135.196 55.5124 132.059 55.0439C131.879 55.0393 131.692 55.0247 131.5 55C131.678 55 131.865 55.0149 132.059 55.0439Z" fill="#CBB96A" fill-opacity="0.85"/>
<path d="M137 40.5C137.5 50 136.271 55.6128 131.5 55C135.167 55 142.4 61.3 142 66.5C141.167 62.6667 140.9 53.4 146.5 53C143.3 53 138.5 48 137 40.5Z" stroke="black"/>
<path d="M12.5526 13.9501C9.10591 14.0181 8.21611 10.6107 8.6 5C7.4 9.61538 3.56 12.6923 1 12.6923C4.64281 12.8925 5.1825 16.7003 4.89858 19.3847C4.66017 19.9279 4.54731 20.4731 4.6 21C4.72458 20.5592 4.83333 20.0016 4.89858 19.3847C6.03772 16.789 10.0432 14.2384 12.5526 13.9501C12.6972 13.9472 12.8463 13.9383 13 13.9231C12.8573 13.9231 12.7078 13.9323 12.5526 13.9501Z" fill="#CBB96A" fill-opacity="0.85"/>
<path d="M8.6 5C8.2 10.8462 9.18282 14.3002 13 13.9231C10.0667 13.9231 4.28 17.8 4.6 21C5.26667 18.641 5.48 12.9385 1 12.6923C3.56 12.6923 7.4 9.61538 8.6 5Z" stroke="black"/>
<path d="M5.44743 40.4251C8.89409 40.5272 9.78389 35.4161 9.4 27C10.6 33.9231 14.44 38.5385 17 38.5385C13.3572 38.8387 12.8175 44.5504 13.1014 48.577C13.3398 49.3919 13.4527 50.2097 13.4 51C13.2754 50.3388 13.1667 49.5024 13.1014 48.577C11.9623 44.6835 7.95682 40.8576 5.44743 40.4251C5.30282 40.4209 5.15371 40.4074 5 40.3846C5.14273 40.3846 5.29222 40.3984 5.44743 40.4251Z" fill="#CBB96A" fill-opacity="0.85"/>
<path d="M9.4 27C9.8 35.7692 8.81718 40.9503 5 40.3846C7.93333 40.3846 13.72 46.2 13.4 51C12.7333 47.4615 12.52 38.9077 17 38.5385C14.44 38.5385 10.6 33.9231 9.4 27Z" stroke="black"/>
<path d="M76.9579 256.168C76.9579 258.357 77.9464 260.955 80.4598 260.955C81.9337 260.955 83.305 260.86 84.0947 259.36C84.7969 258.025 85.1364 256.265 85.1364 254.772" stroke="#C6AB40" stroke-width="3" stroke-linecap="round"/>
<path d="M60.673 255.981C61.1734 255.981 61.6172 255.921 62.0975 255.797C62.3531 255.731 62.5824 255.72 62.8459 255.72C63.1212 255.72 63.3964 255.72 63.6717 255.72" stroke="#E59ECB" stroke-width="5" stroke-linecap="round"/>
<path d="M97 254.261C97.5004 254.261 97.9442 254.201 98.4245 254.077C98.6801 254.011 98.9094 254 99.173 254C99.4482 254 99.7234 254 99.9987 254" stroke="#E59ECB" stroke-width="5" stroke-linecap="round"/>
<path d="M102.185 242C102.059 242.013 101.931 242.105 101.827 242.163C101.333 242.439 99.9827 243.207 99.5 243.5C98.3368 244.206 98.0192 244.388 96.8859 245.144C96.3049 245.531 95.6894 245.844 95.1151 246.226C95.077 246.252 94.9433 246.314 95.0271 246.354C95.4021 246.532 95.7819 246.695 96.1522 246.885C97.6711 247.666 99.1453 247.968 100.5 249C100.99 249.373 101.141 249.5 101.827 249.5" stroke="#C6AB40" stroke-width="3" stroke-linecap="round"/>
<path d="M58 243C58.1266 243.013 58.2542 243.105 58.3587 243.163C58.852 243.439 60.2026 244.207 60.6853 244.5C61.8485 245.206 62.1661 245.388 63.2994 246.144C63.8804 246.531 64.4959 246.844 65.0702 247.226C65.1083 247.252 65.242 247.314 65.1582 247.354C64.7832 247.532 64.4034 247.695 64.0331 247.885C62.5142 248.666 61.04 248.968 59.6853 250C59.1953 250.373 59.0444 250.5 58.3587 250.5" stroke="#C6AB40" stroke-width="3" stroke-linecap="round"/>
<path d="M15.9 203.241L13 177.224C38.4964 160 129.496 162 144.479 176.5L140.938 203.241C138.223 205.095 135.164 206.784 131.832 208.309L120.269 289.174C97.7999 293.523 53.8319 293.118 38.3692 287.32L23.8688 208.071C20.2448 206.486 15.9 203.966 15.9 203.241Z" fill="#AA7622"/>
<path d="M13 177.224L15.9 203.241C15.9 203.966 20.2448 206.486 23.8688 208.071M13 177.224C21.4964 194.5 119.496 205 144.479 176.5M13 177.224C38.4964 160 129.496 162 144.479 176.5M23.8688 208.071C43.9964 224 111.996 223 140.938 203.241L144.479 176.5M23.8688 208.071L38.3692 287.32C53.8319 293.118 97.7999 293.523 120.269 289.174L131.866 208.071" stroke="black" stroke-width="1.44964"/>
<path d="M22.9965 183C22.9965 180.305 27.9052 180.446 30.0183 180.269C31.6116 180.136 33.0129 180.342 34.5044 180.847C35.5941 181.216 36.6289 181.747 37.8203 181.767C40.1298 181.806 41.3232 179.626 43.3792 178.87C45.448 178.109 47.6095 177.388 49.87 177.363C51.0264 177.35 52.2123 177.268 53.3159 177.627L53.3564 177.64C54.0987 177.882 54.444 177.994 55.1147 177.51C57.0659 176.1 58.8632 173.599 61.7681 174.055C62.4455 174.161 62.9471 174.581 63.5669 174.799C64.3823 175.085 65.2507 175.054 66.1025 175.161C68.4726 175.458 70.8867 175.425 73.276 175.425C75.3158 175.425 77.3222 176.317 79.1384 177.079C81.4212 178.036 84.9464 178.382 87.363 177.852C88.7477 177.548 90.0135 176.744 91.4482 176.668C92.7455 176.599 93.3518 177.063 94.4931 177.539C97.5013 178.793 101.393 178.757 104.527 177.93C107.23 177.217 110.092 175.953 112.925 175.953C114.272 175.953 115.193 176.044 116.382 176.658C117.327 177.146 118.181 177.884 119.199 178.244C121.833 179.174 123.988 177.39 126.362 176.854C127.076 176.693 134.955 181.188 136.479 182.022C136.485 182.015 136.491 182.007 136.496 182C136.837 182.21 136.793 182.194 136.479 182.022C126.905 194.24 51.4793 199.99 22.9965 183Z" fill="#39280C"/>
<path d="M22.9965 183C22.9965 180.305 27.9052 180.446 30.0183 180.269C31.6116 180.136 33.0129 180.342 34.5044 180.847C35.5941 181.216 36.6289 181.747 37.8203 181.767C40.1298 181.806 41.3232 179.626 43.3792 178.87C45.448 178.109 47.6095 177.388 49.87 177.363C51.0264 177.35 52.2123 177.268 53.3159 177.627C54.0863 177.878 54.432 178.003 55.1147 177.51C57.0659 176.1 58.8632 173.599 61.7681 174.055C62.4455 174.161 62.9471 174.581 63.5669 174.799C64.3823 175.085 65.2507 175.054 66.1025 175.161C68.4726 175.458 70.8867 175.425 73.276 175.425C75.3158 175.425 77.3222 176.317 79.1384 177.079C81.4212 178.036 84.9464 178.382 87.363 177.852C88.7477 177.548 90.0134 176.744 91.4482 176.668C92.7455 176.599 93.3518 177.063 94.4931 177.539C97.5013 178.793 101.393 178.757 104.527 177.93C107.23 177.217 110.092 175.953 112.925 175.953C114.272 175.953 115.193 176.044 116.382 176.658C117.327 177.146 118.181 177.884 119.199 178.244C121.833 179.174 123.988 177.39 126.362 176.854C127.223 176.66 138.496 183.233 136.496 182C126.996 194.233 51.4965 200 22.9965 183Z" stroke="black" stroke-width="3" stroke-linecap="round"/>
<g filter="url(#filter3_d_10_271)">
<path d="M74.886 73C155.446 90.6246 139.935 150.548 124.923 183.783C94.1003 192.646 55.5382 188.147 36.8576 185.294C20.8456 168.676 -7.17531 95.1566 74.886 73Z" fill="#316322"/>
<path d="M74.886 73C64.7117 89.1139 48.3662 134.736 64.3781 188.315M74.886 73C101.406 104.221 99.0707 159.277 92.8994 188.315M74.886 73C155.446 90.6246 139.935 150.548 124.923 183.783C94.1003 192.646 55.5382 188.147 36.8576 185.294C20.8456 168.676 -7.17531 95.1566 74.886 73Z" stroke="black"/>
</g>
<path d="M78.7738 74.7648C75.6749 75.7183 71.9676 73.892 68.7875 73.892C69.0947 73.2776 69.1155 73.5615 69.0185 72.7367C68.966 72.2906 68.8751 71.6871 68.7746 71.2349C68.4204 69.641 68.3254 67.7054 68.3254 66.062C68.3254 63.2383 67.6322 60.5305 67.6322 57.7187C67.6322 53.2192 65.1666 49.4599 64.2179 45.1908C63.9086 43.7992 63.4734 42.3272 63.4734 40.9036C63.4734 40.1591 63.5724 40.1591 64.2934 40.1591H64.2949C66.5775 40.1591 68.8438 40.2372 71.0979 39.9152C72.0673 39.7767 73.5237 38.3492 74.4481 38.5546C74.9165 38.6587 75.2665 41.6265 75.4365 42.2385C75.7283 43.2892 76.0776 44.2504 76.2965 45.3448C76.5503 46.614 76.412 47.9965 76.412 49.2855C76.412 51.7119 76.5464 54.0945 76.6431 56.5121C76.7238 58.5297 77.3559 60.173 78.0569 61.9953L78.0807 62.0572C78.605 63.4203 80.8019 64.5711 80.8019 66.1519C80.8019 67.6367 80.8249 69.0646 81.0201 70.529C81.1026 71.1477 82.7635 73.7699 81.7261 73.892C81.3638 73.9346 80.8624 74.2543 80.4682 74.3669C79.9535 74.514 79.3426 74.5898 78.7738 74.7648Z" fill="#31240F" stroke="#39280C" stroke-width="3" stroke-linecap="round"/>
<g filter="url(#filter4_d_10_271)">
<path d="M73.0654 32.1124C74.3987 23.8145 71.313 17.7557 91.5 2C94.3134 7.97849 89.0879 21.9959 82.0078 30.7323C88.172 24.7406 99.4145 17.3405 115.5 16C111.743 26.6931 101.061 32.2008 91.7125 35.1256C102.512 32.9295 117.567 31.1534 123 35.5C116.254 43.6659 101.441 44.4905 90.5546 43.1079C102.805 46.4945 116.083 52.3008 118 61.5C107.229 63.2007 94.232 56.2301 85.0222 49.4493C92.5465 57.3899 101.381 69.4467 103 77C92.1518 77 79.8854 58.4062 73.916 47.6092C78.1875 57.2261 83.0318 74.0917 76 84C69.5025 72.6292 66.5231 55.5124 66.2583 46.2741C63.4568 58.3139 46.5792 74.6052 40.9999 76C39.461 69.973 48.4374 56.7455 59.6629 42.9125C50.2448 52.0949 28.4217 58.9261 24.4999 57.5C24.4372 49.115 35.9999 39.4591 61.4059 36C50.9373 35.6667 26.2 36 23 26C33.4 22 55.8062 28.5 64.2093 34C55.9729 28.5 35.1 24.3 39.5 7.5C47.3174 6.14045 59.4188 16.122 65.1291 26.9773C61.5985 18.1576 58.4786 8.17087 64.2093 1C71.8951 3.77056 73.2776 19.824 73.0092 32.1096C73.0279 32.1105 73.0466 32.1114 73.0654 32.1124Z" fill="#F3F4ED"/>
<path d="M82 37.5C91.8333 35.6667 110.3 30.8 115.5 16C96.3 17.6 84.0001 27.8333 79.0001 34C87.5001 26 94.7 8.8 91.5 2C71 18 74.5 24 73.0001 32.5C73.3063 20.1667 71.9768 3.8 64.2093 1C57.1767 9.8 63.4729 22.8407 67.5 32.7611M82 37.5C89.6666 35.1667 115.5 29.5 123 35.5C113.5 47 88 43.9401 80 40.6601M82 37.5C82.2128 38.8835 81.4064 39.9272 80 40.6601M82 37.5C78.979 31.7327 72.4886 31.3959 67.5 32.7611M80 40.6601C93.6667 43.2734 115.5 49.5 118 61.5C102.8 63.9 83.1667 49.0312 76 41.7968M80 40.6601C78.9452 41.2098 77.5528 41.5846 76 41.7968M76 41.7968C82.3334 44.6978 100.6 65.8 103 77C89.7999 77 74.5 49.4701 71 41.9552M76 41.7968C74.4359 42.0105 72.7089 42.0591 71 41.9552M71 41.9552C75 48.3034 84.8001 71.6 76 84C68.0001 70 65.3334 47.2895 66.5 41.2979M71 41.9552C69.0542 41.8368 68.1319 41.7934 66.5 41.2979M66.5 41.2979C68.6667 53.1986 47.3999 74.4 40.9999 76C39.3333 69.4727 50 54.5 62.5 39.4591M66.5 41.2979C65.0872 40.8689 63.5797 40.2202 62.5 39.4591M62.5 39.4591C61.6481 38.8585 61.0625 38.1879 61 37.5C60.7851 37.0703 60.9498 36.5482 61.4059 36M62.5 39.4591C55.8333 50.3061 28.8999 59.1 24.4999 57.5C24.4372 49.115 35.9999 39.4591 61.4059 36M61.4059 36C50.9373 35.6667 26.2 36 23 26C33.4 22 55.8062 28.5 64.2093 34M61.4059 36C61.9613 35.3324 62.9489 34.6259 64.2093 34M64.2093 34C55.9729 28.5 35.1 24.3 39.5 7.5C48.7 5.9 63.8333 20.0074 67.5 32.7611M64.2093 34C65.1709 33.5225 66.2914 33.0918 67.5 32.7611" stroke="black"/>
</g>
<g filter="url(#filter5_d_10_271)">
<path d="M61 37C63 32 77.5 29 82 37.5C81.5 43.5 62 43 61 37Z" fill="#DBCB37"/>
<path d="M61 37C63 32 77.5 29 82 37.5C81.5 43.5 62 43 61 37Z" stroke="black"/>
</g>
<path d="M132.059 55.0439C136.368 55.1545 137.48 49.6175 137 40.5C138.5 48 143.3 53 146.5 53C141.946 53.3253 141.272 59.5129 141.627 63.8751C141.925 64.7578 142.066 65.6438 142 66.5C141.844 65.7837 141.708 64.8776 141.627 63.8751C140.203 59.6571 135.196 55.5124 132.059 55.0439C131.879 55.0393 131.692 55.0247 131.5 55C131.678 55 131.865 55.0149 132.059 55.0439Z" fill="#CBB96A" fill-opacity="0.85"/>
<path d="M137 40.5C137.5 50 136.271 55.6128 131.5 55C135.167 55 142.4 61.3 142 66.5C141.167 62.6667 140.9 53.4 146.5 53C143.3 53 138.5 48 137 40.5Z" stroke="black"/>
<path d="M12.5526 13.9501C9.10591 14.0181 8.21611 10.6107 8.6 5C7.4 9.61538 3.56 12.6923 1 12.6923C4.64281 12.8925 5.1825 16.7003 4.89858 19.3847C4.66017 19.9279 4.54731 20.4731 4.6 21C4.72458 20.5592 4.83333 20.0016 4.89858 19.3847C6.03772 16.789 10.0432 14.2384 12.5526 13.9501C12.6972 13.9472 12.8463 13.9383 13 13.9231C12.8573 13.9231 12.7078 13.9323 12.5526 13.9501Z" fill="#CBB96A" fill-opacity="0.85"/>
<path d="M8.6 5C8.2 10.8462 9.18282 14.3002 13 13.9231C10.0667 13.9231 4.28 17.8 4.6 21C5.26667 18.641 5.48 12.9385 1 12.6923C3.56 12.6923 7.4 9.61538 8.6 5Z" stroke="black"/>
<path d="M5.44743 40.4251C8.89409 40.5272 9.78389 35.4161 9.4 27C10.6 33.9231 14.44 38.5385 17 38.5385C13.3572 38.8387 12.8175 44.5504 13.1014 48.577C13.3398 49.3919 13.4527 50.2097 13.4 51C13.2754 50.3388 13.1667 49.5024 13.1014 48.577C11.9623 44.6835 7.95682 40.8576 5.44743 40.4251C5.30282 40.4209 5.15371 40.4074 5 40.3846C5.14273 40.3846 5.29222 40.3984 5.44743 40.4251Z" fill="#CBB96A" fill-opacity="0.85"/>
<path d="M9.4 27C9.8 35.7692 8.81718 40.9503 5 40.3846C7.93333 40.3846 13.72 46.2 13.4 51C12.7333 47.4615 12.52 38.9077 17 38.5385C14.44 38.5385 10.6 33.9231 9.4 27Z" stroke="black"/>
<path d="M76.9579 256.168C76.9579 258.357 77.9464 260.955 80.4598 260.955C81.9337 260.955 83.305 260.86 84.0947 259.36C84.7969 258.025 85.1364 256.265 85.1364 254.772" stroke="#C6AB40" stroke-width="3" stroke-linecap="round"/>
<path d="M60.673 255.981C61.1734 255.981 61.6172 255.921 62.0975 255.797C62.3531 255.731 62.5824 255.72 62.8459 255.72C63.1212 255.72 63.3964 255.72 63.6717 255.72" stroke="#E59ECB" stroke-width="5" stroke-linecap="round"/>
<path d="M97 254.261C97.5004 254.261 97.9442 254.201 98.4245 254.077C98.6801 254.011 98.9094 254 99.173 254C99.4482 254 99.7234 254 99.9987 254" stroke="#E59ECB" stroke-width="5" stroke-linecap="round"/>
<path d="M102.185 242C102.059 242.013 101.931 242.105 101.827 242.163C101.333 242.439 99.9827 243.207 99.5 243.5C98.3368 244.206 98.0192 244.388 96.8859 245.144C96.3049 245.531 95.6894 245.844 95.1151 246.226C95.077 246.252 94.9433 246.314 95.0271 246.354C95.4021 246.532 95.7819 246.695 96.1522 246.885C97.6711 247.666 99.1453 247.968 100.5 249C100.99 249.373 101.141 249.5 101.827 249.5" stroke="#C6AB40" stroke-width="3" stroke-linecap="round"/>
<path d="M58 243C58.1266 243.013 58.2542 243.105 58.3587 243.163C58.852 243.439 60.2026 244.207 60.6853 244.5C61.8485 245.206 62.1661 245.388 63.2994 246.144C63.8804 246.531 64.4959 246.844 65.0702 247.226C65.1083 247.252 65.242 247.314 65.1582 247.354C64.7832 247.532 64.4034 247.695 64.0331 247.885C62.5142 248.666 61.04 248.968 59.6853 250C59.1953 250.373 59.0444 250.5 58.3587 250.5" stroke="#C6AB40" stroke-width="3" stroke-linecap="round"/>
<g filter="url(#filter6_d_10_271)">
<path d="M45.4615 86.9333L47.7692 80M45.4615 86.9333L42.2308 82.6M45.4615 86.9333L39 87.8M45.4615 86.9333L40.8462 93M45.4615 86.9333L47.7692 90.8333M45.4615 86.9333H51" stroke="#737D70" stroke-width="3" stroke-linecap="round" stroke-linejoin="round"/>
</g>
<g filter="url(#filter7_d_10_271)">
<path d="M20.5 117L18 111L21 117.5L14 118.5L21.5 118M21.5 118L16.5 124.5M21.5 118L24.5 122M21.5 118L25.5 116" stroke="#737D70" stroke-width="3" stroke-linecap="round" stroke-linejoin="round"/>
</g>
<g filter="url(#filter8_d_10_271)">
<path d="M16 155.5L23.5 158.5L23 152L24 158.5M24 158.5L28 156M24 158.5L21 164.5L25 158.5L29.5 163" stroke="#737D70" stroke-width="3" stroke-linecap="round" stroke-linejoin="round"/>
</g>
<g filter="url(#filter9_d_10_271)">
<path d="M57.5 130L54 133L57.7459 129.57M57.7459 129.57L64.5 131.5L58 129.5L63.5 124L57.5 129.5L57.7459 129.57ZM57.7459 129.57L59 135M57.7459 129.57L55.5 122" stroke="#737D70" stroke-width="3" stroke-linecap="round" stroke-linejoin="round" shape-rendering="crispEdges"/>
</g>
<g filter="url(#filter10_d_10_271)">
<path d="M65.7692 94.3333L69.5769 89.4444L65.7692 93.4444L63.2308 89L65.3462 94.3333L70 97L65.7692 94.3333ZM65.7692 94.3333L59 96.1111M65.7692 94.3333L61.5385 101" stroke="#737D70" stroke-width="3" stroke-linecap="round" stroke-linejoin="round" shape-rendering="crispEdges"/>
</g>
<g filter="url(#filter11_d_10_271)">
<path d="M59.5 166L62.5 159L59.5 166.5L58.9667 166M51.5 159L58.9667 166M58.9667 166L51 169L60 166.5L56 174.5L60.5 166.5L66.5 168" stroke="#737D70" stroke-width="3" stroke-linecap="round" stroke-linejoin="round"/>
</g>
<g filter="url(#filter12_d_10_271)">
<path d="M99.3438 122L95.2812 129.226H103L95.2812 130.084M94.875 130.129L100.969 136L94.875 129.226L90.4062 126.065L94.875 130.129ZM94.875 130.129L95.2812 130.084M90 134.194L95.2812 130.084" stroke="#737D70" stroke-width="3" stroke-linecap="round" stroke-linejoin="round" shape-rendering="crispEdges"/>
</g>
<path d="M87.5 89V93L94.5 92.5L87 94L81.5 92.5L87.5 95.5M87.5 95.5L84 101M87.5 95.5L94 100.5" stroke="#737D70" stroke-width="3" stroke-linecap="round" stroke-linejoin="round"/>
<g filter="url(#filter13_d_10_271)">
<path d="M110.5 80V87.5L115.5 82L111 88L119.5 89.5L110.212 88.0335M110.212 88.0335L110 88H105L110.212 88.0335ZM110 93L111 87.5" stroke="#737D70" stroke-width="3" stroke-linecap="round" stroke-linejoin="round" shape-rendering="crispEdges"/>
</g>
<g filter="url(#filter14_d_10_271)">
<path d="M135.5 109V118.5L143.5 115L131 120L135.5 119L140.5 124.5" stroke="#737D70" stroke-width="3" stroke-linecap="round" stroke-linejoin="round" shape-rendering="crispEdges"/>
</g>
<g filter="url(#filter15_d_10_271)">
<path d="M95.5 167.5L101.5 162M95.5 167.5L91.5 162M95.5 167.5L89.5 170M96 176V168L101.5 169.5" stroke="#737D70" stroke-width="3" stroke-linecap="round" stroke-linejoin="round"/>
</g>
<path d="M133.5 158L139.5 154.5M133.5 158L139 161.5M133.5 158L130.5 152.5M133.5 158L126.5 159L133.5 158.5L134 164" stroke="#737D70" stroke-width="3" stroke-linecap="round" stroke-linejoin="round"/>
<defs>
<filter id="filter0_d_10_271" x="14.4965" y="72.4855" width="127" height="125.014" filterUnits="userSpaceOnUse" color-interpolation-filters="sRGB">
<feFlood flood-opacity="0" result="BackgroundImageFix"/>
<feColorMatrix in="SourceAlpha" type="matrix" values="0 0 0 0 0 0 0 0 0 0 0 0 0 0 0 0 0 0 127 0" result="hardAlpha"/>
<feOffset dy="4"/>
<feGaussianBlur stdDeviation="2"/>
<feComposite in2="hardAlpha" operator="out"/>
<feColorMatrix type="matrix" values="0 0 0 0 0 0 0 0 0 0 0 0 0 0 0 0 0 0 0.25 0"/>
<feBlend mode="normal" in2="BackgroundImageFix" result="effect1_dropShadow_10_271"/>
<feBlend mode="normal" in="SourceGraphic" in2="effect1_dropShadow_10_271" result="shape"/>
</filter>
<filter id="filter1_d_10_271" x="18.3799" y="0.408264" width="109.329" height="92.5198" filterUnits="userSpaceOnUse" color-interpolation-filters="sRGB">
<feFlood flood-opacity="0" result="BackgroundImageFix"/>
<feColorMatrix in="SourceAlpha" type="matrix" values="0 0 0 0 0 0 0 0 0 0 0 0 0 0 0 0 0 0 127 0" result="hardAlpha"/>
<feOffset dy="4"/>
<feGaussianBlur stdDeviation="2"/>
<feComposite in2="hardAlpha" operator="out"/>
<feColorMatrix type="matrix" values="0 0 0 0 0 0 0 0 0 0 0 0 0 0 0 0 0 0 0.25 0"/>
<feBlend mode="normal" in2="BackgroundImageFix" result="effect1_dropShadow_10_271"/>
<feBlend mode="normal" in="SourceGraphic" in2="effect1_dropShadow_10_271" result="shape"/>
</filter>
<filter id="filter2_d_10_271" x="56.4838" y="31.6453" width="30.0266" height="18.6125" filterUnits="userSpaceOnUse" color-interpolation-filters="sRGB">
<feFlood flood-opacity="0" result="BackgroundImageFix"/>
<feColorMatrix in="SourceAlpha" type="matrix" values="0 0 0 0 0 0 0 0 0 0 0 0 0 0 0 0 0 0 127 0" result="hardAlpha"/>
<feOffset dy="4"/>
<feGaussianBlur stdDeviation="2"/>
<feComposite in2="hardAlpha" operator="out"/>
<feColorMatrix type="matrix" values="0 0 0 0 0 0 0 0 0 0 0 0 0 0 0 0 0 0 0.25 0"/>
<feBlend mode="normal" in2="BackgroundImageFix" result="effect1_dropShadow_10_271"/>
<feBlend mode="normal" in="SourceGraphic" in2="effect1_dropShadow_10_271" result="shape"/>
</filter>
<filter id="filter3_d_10_271" x="14.4965" y="72.4855" width="127" height="125.014" filterUnits="userSpaceOnUse" color-interpolation-filters="sRGB">
<feFlood flood-opacity="0" result="BackgroundImageFix"/>
<feColorMatrix in="SourceAlpha" type="matrix" values="0 0 0 0 0 0 0 0 0 0 0 0 0 0 0 0 0 0 127 0" result="hardAlpha"/>
<feOffset dy="4"/>
<feGaussianBlur stdDeviation="2"/>
<feComposite in2="hardAlpha" operator="out"/>
<feColorMatrix type="matrix" values="0 0 0 0 0 0 0 0 0 0 0 0 0 0 0 0 0 0 0.25 0"/>
<feBlend mode="normal" in2="BackgroundImageFix" result="effect1_dropShadow_10_271"/>
<feBlend mode="normal" in="SourceGraphic" in2="effect1_dropShadow_10_271" result="shape"/>
</filter>
<filter id="filter4_d_10_271" x="18.3799" y="0.408264" width="109.329" height="92.5198" filterUnits="userSpaceOnUse" color-interpolation-filters="sRGB">
<feFlood flood-opacity="0" result="BackgroundImageFix"/>
<feColorMatrix in="SourceAlpha" type="matrix" values="0 0 0 0 0 0 0 0 0 0 0 0 0 0 0 0 0 0 127 0" result="hardAlpha"/>
<feOffset dy="4"/>
<feGaussianBlur stdDeviation="2"/>
<feComposite in2="hardAlpha" operator="out"/>
<feColorMatrix type="matrix" values="0 0 0 0 0 0 0 0 0 0 0 0 0 0 0 0 0 0 0.25 0"/>
<feBlend mode="normal" in2="BackgroundImageFix" result="effect1_dropShadow_10_271"/>
<feBlend mode="normal" in="SourceGraphic" in2="effect1_dropShadow_10_271" result="shape"/>
</filter>
<filter id="filter5_d_10_271" x="56.4838" y="31.6453" width="30.0266" height="18.6125" filterUnits="userSpaceOnUse" color-interpolation-filters="sRGB">
<feFlood flood-opacity="0" result="BackgroundImageFix"/>
<feColorMatrix in="SourceAlpha" type="matrix" values="0 0 0 0 0 0 0 0 0 0 0 0 0 0 0 0 0 0 127 0" result="hardAlpha"/>
<feOffset dy="4"/>
<feGaussianBlur stdDeviation="2"/>
<feComposite in2="hardAlpha" operator="out"/>
<feColorMatrix type="matrix" values="0 0 0 0 0 0 0 0 0 0 0 0 0 0 0 0 0 0 0.25 0"/>
<feBlend mode="normal" in2="BackgroundImageFix" result="effect1_dropShadow_10_271"/>
<feBlend mode="normal" in="SourceGraphic" in2="effect1_dropShadow_10_271" result="shape"/>
</filter>
<filter id="filter6_d_10_271" x="33.4998" y="78.4996" width="23.0002" height="24.0005" filterUnits="userSpaceOnUse" color-interpolation-filters="sRGB">
<feFlood flood-opacity="0" result="BackgroundImageFix"/>
<feColorMatrix in="SourceAlpha" type="matrix" values="0 0 0 0 0 0 0 0 0 0 0 0 0 0 0 0 0 0 127 0" result="hardAlpha"/>
<feOffset dy="4"/>
<feGaussianBlur stdDeviation="2"/>
<feComposite in2="hardAlpha" operator="out"/>
<feColorMatrix type="matrix" values="0 0 0 0 0 0 0 0 0 0 0 0 0 0 0 0 0 0 0.25 0"/>
<feBlend mode="normal" in2="BackgroundImageFix" result="effect1_dropShadow_10_271"/>
<feBlend mode="normal" in="SourceGraphic" in2="effect1_dropShadow_10_271" result="shape"/>
</filter>
<filter id="filter7_d_10_271" x="8.49988" y="109.5" width="22.5004" height="24.5004" filterUnits="userSpaceOnUse" color-interpolation-filters="sRGB">
<feFlood flood-opacity="0" result="BackgroundImageFix"/>
<feColorMatrix in="SourceAlpha" type="matrix" values="0 0 0 0 0 0 0 0 0 0 0 0 0 0 0 0 0 0 127 0" result="hardAlpha"/>
<feOffset dy="4"/>
<feGaussianBlur stdDeviation="2"/>
<feComposite in2="hardAlpha" operator="out"/>
<feColorMatrix type="matrix" values="0 0 0 0 0 0 0 0 0 0 0 0 0 0 0 0 0 0 0.25 0"/>
<feBlend mode="normal" in2="BackgroundImageFix" result="effect1_dropShadow_10_271"/>
<feBlend mode="normal" in="SourceGraphic" in2="effect1_dropShadow_10_271" result="shape"/>
</filter>
<filter id="filter8_d_10_271" x="10.4996" y="150.5" width="24.5004" height="23.5003" filterUnits="userSpaceOnUse" color-interpolation-filters="sRGB">
<feFlood flood-opacity="0" result="BackgroundImageFix"/>
<feColorMatrix in="SourceAlpha" type="matrix" values="0 0 0 0 0 0 0 0 0 0 0 0 0 0 0 0 0 0 127 0" result="hardAlpha"/>
<feOffset dy="4"/>
<feGaussianBlur stdDeviation="2"/>
<feComposite in2="hardAlpha" operator="out"/>
<feColorMatrix type="matrix" values="0 0 0 0 0 0 0 0 0 0 0 0 0 0 0 0 0 0 0.25 0"/>
<feBlend mode="normal" in2="BackgroundImageFix" result="effect1_dropShadow_10_271"/>
<feBlend mode="normal" in="SourceGraphic" in2="effect1_dropShadow_10_271" result="shape"/>
</filter>
<filter id="filter9_d_10_271" x="48.5" y="120.5" width="21.5004" height="24.0007" filterUnits="userSpaceOnUse" color-interpolation-filters="sRGB">
<feFlood flood-opacity="0" result="BackgroundImageFix"/>
<feColorMatrix in="SourceAlpha" type="matrix" values="0 0 0 0 0 0 0 0 0 0 0 0 0 0 0 0 0 0 127 0" result="hardAlpha"/>
<feOffset dy="4"/>
<feGaussianBlur stdDeviation="2"/>
<feComposite in2="hardAlpha" operator="out"/>
<feColorMatrix type="matrix" values="0 0 0 0 0 0 0 0 0 0 0 0 0 0 0 0 0 0 0.25 0"/>
<feBlend mode="normal" in2="BackgroundImageFix" result="effect1_dropShadow_10_271"/>
<feBlend mode="normal" in="SourceGraphic" in2="effect1_dropShadow_10_271" result="shape"/>
</filter>
<filter id="filter10_d_10_271" x="53.4996" y="87.4998" width="22.0005" height="23.0004" filterUnits="userSpaceOnUse" color-interpolation-filters="sRGB">
<feFlood flood-opacity="0" result="BackgroundImageFix"/>
<feColorMatrix in="SourceAlpha" type="matrix" values="0 0 0 0 0 0 0 0 0 0 0 0 0 0 0 0 0 0 127 0" result="hardAlpha"/>
<feOffset dy="4"/>
<feGaussianBlur stdDeviation="2"/>
<feComposite in2="hardAlpha" operator="out"/>
<feColorMatrix type="matrix" values="0 0 0 0 0 0 0 0 0 0 0 0 0 0 0 0 0 0 0.25 0"/>
<feBlend mode="normal" in2="BackgroundImageFix" result="effect1_dropShadow_10_271"/>
<feBlend mode="normal" in="SourceGraphic" in2="effect1_dropShadow_10_271" result="shape"/>
</filter>
<filter id="filter11_d_10_271" x="45.4996" y="157.5" width="26.5007" height="26.5006" filterUnits="userSpaceOnUse" color-interpolation-filters="sRGB">
<feFlood flood-opacity="0" result="BackgroundImageFix"/>
<feColorMatrix in="SourceAlpha" type="matrix" values="0 0 0 0 0 0 0 0 0 0 0 0 0 0 0 0 0 0 127 0" result="hardAlpha"/>
<feOffset dy="4"/>
<feGaussianBlur stdDeviation="2"/>
<feComposite in2="hardAlpha" operator="out"/>
<feColorMatrix type="matrix" values="0 0 0 0 0 0 0 0 0 0 0 0 0 0 0 0 0 0 0.25 0"/>
<feBlend mode="normal" in2="BackgroundImageFix" result="effect1_dropShadow_10_271"/>
<feBlend mode="normal" in="SourceGraphic" in2="effect1_dropShadow_10_271" result="shape"/>
</filter>
<filter id="filter12_d_10_271" x="84.4999" y="120.5" width="24.0001" height="25.0002" filterUnits="userSpaceOnUse" color-interpolation-filters="sRGB">
<feFlood flood-opacity="0" result="BackgroundImageFix"/>
<feColorMatrix in="SourceAlpha" type="matrix" values="0 0 0 0 0 0 0 0 0 0 0 0 0 0 0 0 0 0 127 0" result="hardAlpha"/>
<feOffset dy="4"/>
<feGaussianBlur stdDeviation="2"/>
<feComposite in2="hardAlpha" operator="out"/>
<feColorMatrix type="matrix" values="0 0 0 0 0 0 0 0 0 0 0 0 0 0 0 0 0 0 0.25 0"/>
<feBlend mode="normal" in2="BackgroundImageFix" result="effect1_dropShadow_10_271"/>
<feBlend mode="normal" in="SourceGraphic" in2="effect1_dropShadow_10_271" result="shape"/>
</filter>
<filter id="filter13_d_10_271" x="99.5" y="78.5" width="25.5002" height="24.0002" filterUnits="userSpaceOnUse" color-interpolation-filters="sRGB">
<feFlood flood-opacity="0" result="BackgroundImageFix"/>
<feColorMatrix in="SourceAlpha" type="matrix" values="0 0 0 0 0 0 0 0 0 0 0 0 0 0 0 0 0 0 127 0" result="hardAlpha"/>
<feOffset dy="4"/>
<feGaussianBlur stdDeviation="2"/>
<feComposite in2="hardAlpha" operator="out"/>
<feColorMatrix type="matrix" values="0 0 0 0 0 0 0 0 0 0 0 0 0 0 0 0 0 0 0.25 0"/>
<feBlend mode="normal" in2="BackgroundImageFix" result="effect1_dropShadow_10_271"/>
<feBlend mode="normal" in="SourceGraphic" in2="effect1_dropShadow_10_271" result="shape"/>
</filter>
<filter id="filter14_d_10_271" x="125.5" y="107.5" width="23.5007" height="26.5" filterUnits="userSpaceOnUse" color-interpolation-filters="sRGB">
<feFlood flood-opacity="0" result="BackgroundImageFix"/>
<feColorMatrix in="SourceAlpha" type="matrix" values="0 0 0 0 0 0 0 0 0 0 0 0 0 0 0 0 0 0 127 0" result="hardAlpha"/>
<feOffset dy="4"/>
<feGaussianBlur stdDeviation="2"/>
<feComposite in2="hardAlpha" operator="out"/>
<feColorMatrix type="matrix" values="0 0 0 0 0 0 0 0 0 0 0 0 0 0 0 0 0 0 0.25 0"/>
<feBlend mode="normal" in2="BackgroundImageFix" result="effect1_dropShadow_10_271"/>
<feBlend mode="normal" in="SourceGraphic" in2="effect1_dropShadow_10_271" result="shape"/>
</filter>
<filter id="filter15_d_10_271" x="83.9996" y="160.5" width="23.0007" height="25.0001" filterUnits="userSpaceOnUse" color-interpolation-filters="sRGB">
<feFlood flood-opacity="0" result="BackgroundImageFix"/>
<feColorMatrix in="SourceAlpha" type="matrix" values="0 0 0 0 0 0 0 0 0 0 0 0 0 0 0 0 0 0 127 0" result="hardAlpha"/>
<feOffset dy="4"/>
<feGaussianBlur stdDeviation="2"/>
<feComposite in2="hardAlpha" operator="out"/>
<feColorMatrix type="matrix" values="0 0 0 0 0 0 0 0 0 0 0 0 0 0 0 0 0 0 0.25 0"/>
<feBlend mode="normal" in2="BackgroundImageFix" result="effect1_dropShadow_10_271"/>
<feBlend mode="normal" in="SourceGraphic" in2="effect1_dropShadow_10_271" result="shape"/>
</filter>
</defs>
</svg>
