<svg width="147" height="293" viewBox="0 0 147 293" fill="none" xmlns="http://www.w3.org/2000/svg">
<path d="M15.9 203.241L13 177.224C38.4964 160 129.496 162 144.479 176.5L140.938 203.241C138.223 205.095 135.164 206.784 131.832 208.309L120.269 289.174C97.7999 293.523 53.8319 293.118 38.3692 287.32L23.8688 208.071C20.2448 206.486 15.9 203.966 15.9 203.241Z" fill="#AA7622"/>
<path d="M13 177.224L15.9 203.241C15.9 203.966 20.2448 206.486 23.8688 208.071M13 177.224C21.4964 194.5 119.496 205 144.479 176.5M13 177.224C38.4964 160 129.496 162 144.479 176.5M23.8688 208.071C43.9964 224 111.996 223 140.938 203.241L144.479 176.5M23.8688 208.071L38.3692 287.32C53.8319 293.118 97.7999 293.523 120.269 289.174L131.866 208.071" stroke="black" stroke-width="1.44964"/>
<path d="M22.9965 183C22.9965 180.305 27.9052 180.446 30.0183 180.269C31.6116 180.136 33.0129 180.342 34.5044 180.847C35.5941 181.216 36.6289 181.747 37.8203 181.767C40.1298 181.806 41.3232 179.626 43.3792 178.87C45.448 178.109 47.6095 177.388 49.87 177.363C51.0264 177.35 52.2123 177.268 53.3159 177.627L53.3564 177.64C54.0987 177.882 54.444 177.994 55.1147 177.51C57.0659 176.1 58.8632 173.599 61.7681 174.055C62.4455 174.161 62.9471 174.581 63.5669 174.799C64.3823 175.085 65.2507 175.054 66.1025 175.161C68.4726 175.458 70.8867 175.425 73.276 175.425C75.3158 175.425 77.3222 176.317 79.1384 177.079C81.4212 178.036 84.9464 178.382 87.363 177.852C88.7477 177.548 90.0135 176.744 91.4482 176.668C92.7455 176.599 93.3518 177.063 94.4931 177.539C97.5013 178.793 101.393 178.757 104.527 177.93C107.23 177.217 110.092 175.953 112.925 175.953C114.272 175.953 115.193 176.044 116.382 176.658C117.327 177.146 118.181 177.884 119.199 178.244C121.833 179.174 123.988 177.39 126.362 176.854C127.076 176.693 134.955 181.188 136.479 182.022C136.485 182.015 136.491 182.007 136.496 182C136.837 182.21 136.793 182.194 136.479 182.022C126.905 194.24 51.4793 199.99 22.9965 183Z" fill="#39280C"/>
<path d="M22.9965 183C22.9965 180.305 27.9052 180.446 30.0183 180.269C31.6116 180.136 33.0129 180.342 34.5044 180.847C35.5941 181.216 36.6289 181.747 37.8203 181.767C40.1298 181.806 41.3232 179.626 43.3792 178.87C45.448 178.109 47.6095 177.388 49.87 177.363C51.0264 177.35 52.2123 177.268 53.3159 177.627C54.0863 177.878 54.432 178.003 55.1147 177.51C57.0659 176.1 58.8632 173.599 61.7681 174.055C62.4455 174.161 62.9471 174.581 63.5669 174.799C64.3823 175.085 65.2507 175.054 66.1025 175.161C68.4726 175.458 70.8867 175.425 73.276 175.425C75.3158 175.425 77.3222 176.317 79.1384 177.079C81.4212 178.036 84.9464 178.382 87.363 177.852C88.7477 177.548 90.0134 176.744 91.4482 176.668C92.7455 176.599 93.3518 177.063 94.4931 177.539C97.5013 178.793 101.393 178.757 104.527 177.93C107.23 177.217 110.092 175.953 112.925 175.953C114.272 175.953 115.193 176.044 116.382 176.658C117.327 177.146 118.181 177.884 119.199 178.244C121.833 179.174 123.988 177.39 126.362 176.854C127.223 176.66 138.496 183.233 136.496 182C126.996 194.233 51.4965 200 22.9965 183Z" stroke="black" stroke-width="3" stroke-linecap="round"/>
<path d="M74.886 73C155.446 90.6246 139.935 150.548 124.923 183.783C94.1003 192.646 55.5382 188.147 36.8576 185.294C20.8456 168.676 -7.17531 95.1566 74.886 73Z" fill="#316322"/>
<path d="M74.886 73C64.7117 89.1139 48.3662 134.736 64.3781 188.315M74.886 73C101.406 104.221 99.0707 159.277 92.8994 188.315M74.886 73C155.446 90.6246 139.935 150.548 124.923 183.783C94.1003 192.646 55.5382 188.147 36.8576 185.294C20.8456 168.676 -7.17531 95.1566 74.886 73Z" stroke="black"/>
<path d="M39.3259 86.181C39.419 86.7865 39.9229 87.3407 40.2666 87.8149C41.1945 89.0956 42.1674 90.3234 43.1444 91.5654C43.6406 92.1962 44.0713 92.8741 44.5617 93.5087C44.6768 93.6577 44.7553 93.8883 44.506 93.6944C43.6567 93.0338 42.9185 92.0796 42.3337 91.1941C42.0286 90.7321 41.4378 90.2923 41.2197 89.8016C41.0029 89.3139 41.4957 88.906 41.7272 88.4586C42.2777 87.3941 42.7866 86.3078 43.2001 85.1784C43.3843 84.6754 43.3348 84.0928 43.5343 83.6188C43.5494 83.5829 43.5699 83.2988 43.5591 83.396C43.4918 84.0012 43.0773 84.7313 42.8102 85.2589C41.3558 88.1323 39.8829 91.0069 38.7193 94.0162C38.4449 94.726 38.1389 95.4217 37.8838 96.139C37.7683 96.4641 37.7078 96.9664 37.432 97.2097C37.2966 97.3292 37.2156 96.0739 37.2092 95.9719C37.1581 95.1529 37.1732 94.2735 36.9864 93.4716C36.8079 92.7047 36.2978 92.465 35.6496 92.141C34.4855 91.5589 36.569 91.2619 37.036 91.1322C41.3823 89.9248 45.8833 89.9687 50.3545 89.9687" stroke="#737D70" stroke-width="3" stroke-linecap="round"/>
<path d="M18.0484 124.948C18.0484 124.228 18.0484 123.508 18.0484 122.788C18.0484 121.978 17.9089 121.021 18.0546 120.22C18.1024 119.957 18.3944 119.935 18.6054 119.935C19.1378 119.935 19.4316 120.855 19.6328 121.235C20.2842 122.464 20.8375 123.712 21.6008 124.88C21.8224 125.22 21.9846 125.624 22.2569 125.926C22.3241 126.001 22.492 126.108 22.492 126.223C22.492 126.505 20.7478 125.736 20.6725 125.703C18.9596 124.966 17.1958 124.329 15.3748 123.921C14.8401 123.801 13.2494 123.625 13.7842 123.506C14.1444 123.426 14.5462 123.497 14.9168 123.426C16.1346 123.191 17.3374 122.76 18.5126 122.374C20.7459 121.639 23.017 120.795 25.3513 120.43C25.5025 120.407 27.0441 120.155 26.6634 120.406C25.2674 121.326 24.0052 122.59 22.7272 123.667C21.1156 125.025 19.5183 126.456 17.8318 127.721C17.1311 128.247 16.6215 128.693 16.266 129.404" stroke="#737D70" stroke-width="3" stroke-linecap="round"/>
<path d="M23.3956 166.055C23.3956 166.87 23.3956 164.425 23.3956 163.611C23.3956 162.713 23.4276 161.912 24.2806 161.432C24.801 161.139 25.2935 160.135 25.5989 159.619C25.9163 159.082 26.6347 157.934 27.0161 159.155C27.2861 160.018 27.0818 161.297 26.9357 162.156C26.8142 162.87 26.7679 163.601 26.6262 164.31C26.6003 164.439 26.5835 164.924 26.4901 165.028C26.2613 165.282 23.8641 164.786 26.4406 165.108C28.3856 165.351 30.2383 165.832 32.122 166.365C32.5969 166.499 33.9771 166.946 33.4835 166.946C33.1649 166.946 32.7941 166.803 32.4995 166.705C31.0888 166.235 29.7604 165.532 28.3963 164.947C25.5602 163.732 22.5081 163.203 19.6761 161.989C19.0534 161.722 18.1532 161.093 17.4666 161.042C17.3569 161.034 16.5754 160.785 16.8478 161.067C18.0095 162.27 19.3057 163.329 20.264 164.718C20.9687 165.74 21.3902 166.816 21.8917 167.93C22.0671 168.32 22.3733 168.3 22.752 168.283C23.8749 168.233 24.2873 166.642 24.6458 165.832C25.3626 164.214 26.1557 163.171 27.7526 162.373C28.7764 161.861 29.9858 161.145 31.1318 160.937C31.3689 160.894 31.0765 161.043 31.0327 161.067C30.3638 161.427 29.7522 161.906 29.1142 162.317C26.6448 163.91 24.1914 165.681 22.4178 168.06C21.8077 168.879 21.683 169.669 21.4461 170.616C21.2361 171.456 22.3549 171.389 22.9624 171.514C24.3085 171.791 28.4462 171.848 27.0718 171.848C25.5219 171.848 25.5969 169.63 25.4627 168.518C25.3953 167.96 25.2852 166.832 25.7103 166.365C25.8561 166.204 26.0011 166.037 26.0692 165.832" stroke="#737D70" stroke-width="3" stroke-linecap="round"/>
<path d="M65.652 90.2389C68.642 90.2389 71.6462 90.1276 74.6256 90.4047C75.0314 90.4425 75.2231 90.4636 74.6901 90.5061C73.5243 90.5989 72.3827 90.6535 71.2121 90.6535C70.3837 90.6535 69.257 90.8375 68.4804 90.4692C67.9153 90.2012 67.5699 89.218 67.3979 88.6588C67.1951 87.9997 67.1306 87.3077 67.0431 86.6273C66.9884 86.2017 66.9762 86.121 67.1169 86.6273C67.4918 87.9772 68.132 89.3215 68.6831 90.6074C69.2191 91.8581 69.7462 93.1243 70.3415 94.348C70.5007 94.6753 70.6898 94.8741 70.277 94.758C69.3727 94.5036 68.5799 94.1623 67.7434 93.7215C67.0569 93.3597 66.3607 93.0348 65.6704 92.6896C65.5377 92.6232 66.0641 92.3551 66.0665 92.3533C66.8702 91.7776 67.5469 91.0551 68.204 90.3218C69.4894 88.8874 70.7385 87.4003 72.1012 86.0376C72.3321 85.8068 72.8058 85.5499 72.9488 85.2637" stroke="#737D70" stroke-width="3" stroke-linecap="round"/>
<path d="M56.2821 125.743C59.1443 125.743 62.0066 125.743 64.8688 125.743C64.8994 125.743 64.5427 125.827 64.5003 125.84C63.7589 126.072 63.0144 126.253 62.2522 126.407C61.368 126.585 60.4791 126.745 59.5896 126.895C59.2097 126.959 58.7787 127.04 58.3919 126.969C58.0133 126.898 58.1945 126.001 58.1846 125.734C58.141 124.556 57.391 123.492 56.8349 122.491C56.5026 121.893 56.3597 121.796 56.8026 122.408C57.5761 123.477 58.3492 124.686 59.304 125.6C59.6532 125.935 60.3375 126.433 60.8426 126.102C61.7579 125.504 62.2068 124.355 62.8327 123.504C62.9841 123.299 63.5729 122.815 63.3486 122.938C62.9744 123.142 62.6504 123.473 62.3444 123.762C61.5001 124.559 60.6899 125.396 59.8937 126.241C58.8345 127.364 57.6942 128.474 56.8164 129.751C56.6327 130.018 56.4792 130.401 56.2821 130.635C56.0191 130.948 55.7963 131.319 55.4529 131.548" stroke="#737D70" stroke-width="3" stroke-linecap="round"/>
<path d="M55.9504 162.69C55.9504 162.057 56.4732 161.397 56.7796 160.885C57.2226 160.144 57.6212 159.118 58.3459 158.595C58.3895 158.564 58.7432 158.338 58.6683 158.563C58.4312 159.274 57.2916 159.922 56.6645 160.23C56.1799 160.469 55.6629 160.699 55.1627 160.903C55.086 160.934 54.4959 161.041 54.7619 161.096C56.2253 161.401 57.6996 161.563 59.1382 161.999C60.8372 162.515 62.5609 163.339 64.0396 164.33C64.2654 164.482 65.0245 164.982 64.9011 164.303C64.8339 163.933 64.6745 163.389 64.316 163.349C62.8389 163.185 61.425 163.235 59.9858 162.755C59.883 162.721 59.2452 162.556 59.4054 162.395C60.1042 161.697 60.9543 161.122 61.6718 160.433C62.3933 159.741 62.9725 158.906 63.7264 158.25C63.9985 158.013 64.3177 157.801 63.7633 158.098C61.8959 159.096 60.4564 160.245 59.1889 161.935C58.7247 162.554 58.0415 163.004 57.7562 163.722C57.6238 164.056 57.4386 164.327 57.3601 164.68C57.3183 164.868 57.3231 165.2 57.1942 165.344C57.0948 165.455 56.9701 165.498 56.8625 165.592C56.8144 165.635 57.4395 164.572 57.5812 164.386C57.7971 164.102 59.4627 161.476 59.8891 162.566C60.2325 163.443 60.2252 164.353 60.7597 165.178C60.9082 165.407 61.3402 165.809 61.3402 166.09" stroke="#737D70" stroke-width="3" stroke-linecap="round"/>
<path d="M85.7341 89.6247C85.7341 88.2103 85.4207 86.3891 85.9998 85.0653C86.1186 84.7938 86.1841 84.8359 86.1629 85.1439C86.0861 86.2575 85.858 87.3689 85.6315 88.4592C85.5757 88.7275 85.4032 90.519 85.1302 90.597C84.8154 90.6869 84.3632 90.603 84.0432 90.603C83.4271 90.603 82.7995 90.5671 82.1953 90.7117C82.0666 90.7425 81.2462 91.1299 81.6518 90.9895C82.7502 90.6093 83.6986 90.2128 84.8887 90.1078C86.229 89.9896 87.6073 90.0314 88.9468 90.1441C89.4462 90.1861 90.9456 90.2769 90.4445 90.2769C88.9632 90.2769 87.7314 91.1885 86.3018 91.4485C86.1108 91.4832 86.0104 91.4026 86.0663 91.2069C86.114 91.0399 86.1159 92.0097 86.1025 92.1007C85.9479 93.1487 85.7253 94.2413 85.1483 95.1443C85.0257 95.3362 84.7054 95.9483 84.6532 95.3738C84.5207 93.9169 85.2012 93.056 86.0481 91.9739C86.6355 91.2234 87.5321 92.5007 88.0833 92.8314C89.4857 93.6729 90.9221 94.0012 92.4494 94.4921C92.892 94.6343 91.8273 94.4814 91.7489 94.4679C90.3435 94.2256 89.1113 93.2957 88.041 92.4026C86.4274 91.0562 85.0198 89.2579 83.9104 87.4749C83.6667 87.0832 83.3972 86.9888 83.0166 86.7985" stroke="#737D70" stroke-width="3" stroke-linecap="round"/>
<path d="M92.3104 125.016C92.3104 122.866 93.5405 121.097 94.375 119.22C94.4835 118.976 94.8515 118.308 94.8515 118.576C94.8515 119.052 94.4656 119.612 94.2515 119.996C93.1809 121.918 92.102 123.842 90.9163 125.696C89.8871 127.305 88.7562 128.827 87.6517 130.381C87.5875 130.471 87.3417 131.078 87.1576 131.025C86.9643 130.97 87.8121 126.74 87.8282 126.446C87.904 125.058 87.8635 123.662 87.8635 122.272C87.8635 121.846 87.7644 121.373 88.287 121.708C90.5182 123.136 92.5623 124.598 95.0456 125.616C97.3112 126.545 99.7832 127.423 102.21 127.84C102.423 127.877 103.037 128.088 102.837 128.008C102.414 127.839 102.028 127.251 101.76 126.913C100.782 125.681 100.624 124.668 100.851 123.128C100.856 123.097 100.98 122.652 100.94 122.652C100.278 122.652 99.2623 123.541 98.7778 123.869C96.4164 125.472 94.3265 127.465 91.9486 129.031C91.7737 129.146 90.7356 129.948 90.7222 129.587C90.6209 126.852 92.9245 125.141 95.3279 124.54" stroke="#737D70" stroke-width="3" stroke-linecap="round"/>
<path d="M94.5697 162.764C95.7842 162.554 97.758 162.669 98.7302 161.724C98.834 161.623 99.8249 160.753 99.7456 160.634C99.696 160.56 99.3122 161.066 99.308 161.071C98.8226 161.667 98.3001 162.239 97.7891 162.813C96.676 164.063 95.4636 165.233 94.0662 166.165C93.3167 166.664 93.381 166.522 93.381 165.653C93.381 164.483 93.4593 163.28 93.3728 162.111C93.365 162.006 92.7788 160.254 93.1829 160.254C94.0592 160.254 95.2646 161.861 95.8245 162.384C96.9668 163.451 98.2286 164.475 99.5887 165.257C100.153 165.581 100.709 165.904 101.256 166.255C101.585 166.467 101.732 166.526 101.405 166.181C100.338 165.055 99.6225 163.148 97.9873 162.648C97.0123 162.35 97.1025 162.193 98.1359 162.021" stroke="#737D70" stroke-width="3" stroke-linecap="round"/>
<path d="M133.054 156.672C133.115 156 133.453 155.305 133.648 154.666C133.875 153.923 133.935 152.918 134.317 152.239C134.946 151.12 135.707 153.764 135.729 153.848C136.089 155.251 136.471 156.648 136.835 158.05C136.882 158.233 137.151 158.667 136.81 158.587C135.842 158.359 134.899 157.834 133.946 157.53C132.676 157.125 131.476 156.657 130.264 156.11C128.485 155.307 133.399 154.756 133.78 154.74C135.261 154.678 136.74 154.591 138.222 154.591C138.663 154.591 139.058 154.615 139.476 154.476C139.783 154.374 139.916 154.208 139.559 154.467C138.296 155.386 136.98 156.251 135.671 157.101C134.67 157.751 133.718 158.385 132.79 159.132C132.587 159.295 132.372 159.538 132.163 159.643" stroke="#737D70" stroke-width="3" stroke-linecap="round"/>
<path d="M132.757 114.918C132.757 113.025 132.757 107.346 132.757 109.239C132.757 110.637 132.757 112.035 132.757 113.432C132.757 114.409 132.498 115.096 133.384 115.628C134.087 116.05 135.098 116.326 135.877 115.958C136.328 115.746 136.782 115.463 137.281 115.372C137.562 115.321 138.082 115.501 138.106 115.067C138.133 114.586 138.151 114.058 138.098 113.581C138.064 113.276 138.089 111.459 137.627 111.682C136.029 112.457 134.781 114.711 133.698 116.058C133.111 116.787 133.194 116.539 133.896 117.023C135.241 117.951 136.481 119.005 137.858 119.888C137.968 119.958 139.179 120.713 138.849 120.713C136.602 120.713 134.513 119.318 132.46 118.633" stroke="#737D70" stroke-width="3" stroke-linecap="round"/>
<path d="M111.36 86.6867C111.36 85.2228 111.36 83.7589 111.36 82.2951C111.36 81.9537 111.103 80.5125 111.542 81.288C112.328 82.679 112.803 84.2112 113.622 85.597C114.094 86.3959 114.831 87.3043 115.108 88.2056C115.378 89.0841 112.802 90.5048 112.285 89.9226C112.135 89.7536 114.401 88.8035 114.563 88.7339C115.721 88.2376 116.764 87.8754 118.047 87.8754C118.155 87.8754 118.719 87.9486 118.608 87.7268C118.252 87.0146 117.425 86.4411 116.924 85.8282C116.181 84.9202 116.209 86.0431 115.818 86.8848C115.161 88.2958 114.548 89.6818 113.176 90.5169C111.91 91.2875 110.521 91.005 110.469 89.2787C110.438 88.2818 111.101 91.1718 111.36 92.1349C111.564 92.891 111.709 93.6753 111.955 94.4132" stroke="#737D70" stroke-width="3" stroke-linecap="round"/>
<path d="M78.7738 74.7648C75.6749 75.7183 71.9676 73.8919 68.7875 73.8919C69.0947 73.2775 69.1155 73.5615 69.0185 72.7367C68.966 72.2905 68.8751 71.687 68.7746 71.2349C68.4204 69.6409 68.3254 67.7054 68.3254 66.062C68.3254 63.2382 67.6322 60.5304 67.6322 57.7186C67.6322 53.2192 65.1666 49.4598 64.2179 45.1908C63.9086 43.7992 63.4734 42.3272 63.4734 40.9036C63.4734 40.1591 63.5724 40.1591 64.2934 40.1591H64.2949C66.5775 40.1591 68.8438 40.2372 71.0979 39.9152C72.0673 39.7767 73.5237 38.3491 74.4481 38.5546C74.9165 38.6587 75.2665 41.6265 75.4365 42.2385C75.7283 43.2891 76.0776 44.2504 76.2965 45.3448C76.5503 46.614 76.412 47.9965 76.412 49.2854C76.412 51.7119 76.5464 54.0944 76.6431 56.5121C76.7238 58.5296 77.3559 60.1729 78.0569 61.9953L78.0807 62.0572C78.605 63.4203 80.8019 64.5711 80.8019 66.1519C80.8019 67.6367 80.8249 69.0646 81.0201 70.5289C81.1026 71.1477 82.7635 73.7699 81.7261 73.8919C81.3638 73.9346 80.8624 74.2542 80.4682 74.3669C79.9535 74.5139 79.3426 74.5898 78.7738 74.7648Z" fill="#31240F" stroke="#39280C" stroke-width="3" stroke-linecap="round"/>
<path d="M73.0654 32.1124C74.3987 23.8145 71.313 17.7557 91.5 2C94.3134 7.97849 89.0879 21.9959 82.0078 30.7323C88.172 24.7406 99.4145 17.3405 115.5 16C111.743 26.6931 101.061 32.2008 91.7125 35.1256C102.512 32.9295 117.567 31.1534 123 35.5C116.254 43.6659 101.441 44.4905 90.5546 43.1079C102.805 46.4945 116.083 52.3008 118 61.5C107.229 63.2007 94.232 56.2301 85.0222 49.4493C92.5465 57.3899 101.381 69.4467 103 77C92.1518 77 79.8854 58.4062 73.916 47.6092C78.1875 57.2261 83.0318 74.0917 76 84C69.5025 72.6292 66.5231 55.5124 66.2583 46.2741C63.4568 58.3139 46.5792 74.6052 40.9999 76C39.461 69.973 48.4374 56.7455 59.6629 42.9125C50.2448 52.0949 28.4217 58.9261 24.4999 57.5C24.4372 49.115 35.9999 39.4591 61.4059 36C50.9373 35.6667 26.2 36 23 26C33.4 22 55.8062 28.5 64.2093 34C55.9729 28.5 35.1 24.3 39.5 7.5C47.3174 6.14045 59.4188 16.122 65.1291 26.9773C61.5985 18.1576 58.4786 8.17087 64.2093 1C71.8951 3.77056 73.2776 19.824 73.0092 32.1096C73.0279 32.1105 73.0466 32.1114 73.0654 32.1124Z" fill="#F3F4ED"/>
<path d="M82 37.5C91.8333 35.6667 110.3 30.8 115.5 16C96.3 17.6 84.0001 27.8333 79.0001 34C87.5001 26 94.7 8.8 91.5 2C71 18 74.5 24 73.0001 32.5C73.3063 20.1667 71.9768 3.8 64.2093 1C57.1767 9.8 63.4729 22.8407 67.5 32.7611M82 37.5C89.6666 35.1667 115.5 29.5 123 35.5C113.5 47 88 43.9401 80 40.6601M82 37.5C82.2128 38.8835 81.4064 39.9272 80 40.6601M82 37.5C78.979 31.7327 72.4886 31.3959 67.5 32.7611M80 40.6601C93.6667 43.2734 115.5 49.5 118 61.5C102.8 63.9 83.1667 49.0312 76 41.7968M80 40.6601C78.9452 41.2098 77.5528 41.5846 76 41.7968M76 41.7968C82.3334 44.6978 100.6 65.8 103 77C89.7999 77 74.5 49.4701 71 41.9552M76 41.7968C74.4359 42.0105 72.7089 42.0591 71 41.9552M71 41.9552C75 48.3034 84.8001 71.6 76 84C68.0001 70 65.3334 47.2895 66.5 41.2979M71 41.9552C69.0542 41.8368 68.1319 41.7934 66.5 41.2979M66.5 41.2979C68.6667 53.1986 47.3999 74.4 40.9999 76C39.3333 69.4727 50 54.5 62.5 39.4591M66.5 41.2979C65.0872 40.8689 63.5797 40.2202 62.5 39.4591M62.5 39.4591C61.6481 38.8585 61.0625 38.1879 61 37.5C60.7851 37.0703 60.9498 36.5482 61.4059 36M62.5 39.4591C55.8333 50.3061 28.8999 59.1 24.4999 57.5C24.4372 49.115 35.9999 39.4591 61.4059 36M61.4059 36C50.9373 35.6667 26.2 36 23 26C33.4 22 55.8062 28.5 64.2093 34M61.4059 36C61.9613 35.3324 62.9489 34.6259 64.2093 34M64.2093 34C55.9729 28.5 35.1 24.3 39.5 7.5C48.7 5.9 63.8333 20.0074 67.5 32.7611M64.2093 34C65.1709 33.5225 66.2914 33.0918 67.5 32.7611" stroke="black"/>
<path d="M61 37C63 32 77.5 29 82 37.5C80.8 43.1 62 43 61 37Z" fill="#DBCB37" stroke="black"/>
<path d="M132.059 55.0439C136.368 55.1545 137.48 49.6175 137 40.5C138.5 48 143.3 53 146.5 53C141.946 53.3253 141.272 59.5129 141.627 63.8751C141.925 64.7578 142.066 65.6438 142 66.5C141.844 65.7837 141.708 64.8776 141.627 63.8751C140.203 59.6571 135.196 55.5124 132.059 55.0439C131.879 55.0393 131.692 55.0247 131.5 55C131.678 55 131.865 55.0149 132.059 55.0439Z" fill="#CBB96A" fill-opacity="0.85"/>
<path d="M137 40.5C137.5 50 136.271 55.6128 131.5 55C135.167 55 142.4 61.3 142 66.5C141.167 62.6667 140.9 53.4 146.5 53C143.3 53 138.5 48 137 40.5Z" stroke="black"/>
<path d="M12.5526 13.9501C9.10591 14.0181 8.21611 10.6107 8.6 5C7.4 9.61538 3.56 12.6923 1 12.6923C4.64281 12.8925 5.1825 16.7003 4.89858 19.3847C4.66017 19.9279 4.54731 20.4731 4.6 21C4.72458 20.5592 4.83333 20.0016 4.89858 19.3847C6.03772 16.789 10.0432 14.2384 12.5526 13.9501C12.6972 13.9472 12.8463 13.9383 13 13.9231C12.8573 13.9231 12.7078 13.9323 12.5526 13.9501Z" fill="#CBB96A" fill-opacity="0.85"/>
<path d="M8.6 5C8.2 10.8462 9.18282 14.3002 13 13.9231C10.0667 13.9231 4.28 17.8 4.6 21C5.26667 18.641 5.48 12.9385 1 12.6923C3.56 12.6923 7.4 9.61538 8.6 5Z" stroke="black"/>
<path d="M5.44743 40.4251C8.89409 40.5272 9.78389 35.4161 9.4 27C10.6 33.9231 14.44 38.5385 17 38.5385C13.3572 38.8387 12.8175 44.5504 13.1014 48.577C13.3398 49.3919 13.4527 50.2097 13.4 51C13.2754 50.3388 13.1667 49.5024 13.1014 48.577C11.9623 44.6835 7.95682 40.8576 5.44743 40.4251C5.30282 40.4209 5.15371 40.4074 5 40.3846C5.14273 40.3846 5.29222 40.3984 5.44743 40.4251Z" fill="#CBB96A" fill-opacity="0.85"/>
<path d="M9.4 27C9.8 35.7692 8.81718 40.9503 5 40.3846C7.93333 40.3846 13.72 46.2 13.4 51C12.7333 47.4615 12.52 38.9077 17 38.5385C14.44 38.5385 10.6 33.9231 9.4 27Z" stroke="black"/>
<path d="M76.9579 256.168C76.9579 258.357 77.9464 260.955 80.4598 260.955C81.9337 260.955 83.305 260.86 84.0947 259.36C84.7969 258.025 85.1364 256.265 85.1364 254.772" stroke="#C6AB40" stroke-width="3" stroke-linecap="round"/>
<path d="M60.673 255.981C61.1734 255.981 61.6172 255.921 62.0975 255.797C62.3531 255.731 62.5824 255.72 62.8459 255.72C63.1212 255.72 63.3964 255.72 63.6717 255.72" stroke="#E59ECB" stroke-width="5" stroke-linecap="round"/>
<path d="M97 254.261C97.5004 254.261 97.9442 254.201 98.4245 254.077C98.6801 254.011 98.9094 254 99.173 254C99.4482 254 99.7234 254 99.9987 254" stroke="#E59ECB" stroke-width="5" stroke-linecap="round"/>
<path d="M102.185 242C102.059 242.013 101.931 242.105 101.827 242.163C101.333 242.439 99.9827 243.207 99.5 243.5C98.3368 244.206 98.0192 244.388 96.8859 245.144C96.3049 245.531 95.6894 245.844 95.1151 246.226C95.077 246.252 94.9433 246.314 95.0271 246.354C95.4021 246.532 95.7819 246.695 96.1522 246.885C97.6711 247.666 99.1453 247.968 100.5 249C100.99 249.373 101.141 249.5 101.827 249.5" stroke="#C6AB40" stroke-width="3" stroke-linecap="round"/>
<path d="M58 243C58.1266 243.013 58.2542 243.105 58.3587 243.163C58.852 243.439 60.2026 244.207 60.6853 244.5C61.8485 245.206 62.1661 245.388 63.2994 246.144C63.8804 246.531 64.4959 246.844 65.0702 247.226C65.1083 247.252 65.242 247.314 65.1582 247.354C64.7832 247.532 64.4034 247.695 64.0331 247.885C62.5142 248.666 61.04 248.968 59.6853 250C59.1953 250.373 59.0444 250.5 58.3587 250.5" stroke="#C6AB40" stroke-width="3" stroke-linecap="round"/>
</svg>
