<svg width="135" height="221" viewBox="0 0 135 221" fill="none" xmlns="http://www.w3.org/2000/svg">
<path d="M4.05355 131.172L1.12369 105.164C26.883 87.9456 118.821 89.9449 133.958 104.44L130.381 131.172C127.638 133.025 124.547 134.713 121.181 136.238L109.499 217.076C86.7978 221.423 42.3765 221.018 26.7544 215.222L12.1046 136C8.44315 134.416 4.05355 131.896 4.05355 131.172Z" fill="#AA7622"/>
<path d="M1.12369 105.164L4.05355 131.172C4.05355 131.896 8.44315 134.416 12.1046 136M1.12369 105.164C9.70771 122.434 108.718 132.93 133.958 104.44M1.12369 105.164C26.883 87.9456 118.821 89.9449 133.958 104.44M12.1046 136C32.4397 151.924 101.141 150.924 130.381 131.172L133.958 104.44M12.1046 136L26.7544 215.222C42.3765 221.018 86.7978 221.423 109.499 217.076L121.215 136" stroke="black" stroke-width="1.44964"/>
<path d="M11.2233 110.938C11.2233 108.243 16.1826 108.385 18.3175 108.208C19.9272 108.075 21.343 108.28 22.8499 108.785C23.9507 109.154 24.9963 109.685 26.1999 109.705C28.5333 109.744 29.7389 107.565 31.8161 106.809C33.9063 106.048 36.0901 105.328 38.3739 105.302C39.5421 105.29 40.7403 105.208 41.8553 105.567L41.8962 105.58C42.6461 105.821 42.995 105.934 43.6726 105.449C45.644 104.04 47.4598 101.539 50.3946 101.996C51.079 102.102 51.5858 102.522 52.2119 102.739C53.0357 103.025 53.9132 102.994 54.7737 103.101C57.1682 103.398 59.6072 103.365 62.0212 103.365C64.082 103.365 66.1091 104.257 67.944 105.019C70.2503 105.976 73.8118 106.322 76.2534 105.792C77.6524 105.488 78.9312 104.684 80.3807 104.608C81.6914 104.539 82.3039 105.003 83.457 105.479C86.4962 106.732 90.4283 106.696 93.5947 105.87C96.3256 105.157 99.2166 103.894 102.079 103.894C103.44 103.894 104.37 103.985 105.572 104.598C106.527 105.086 107.389 105.823 108.418 106.183C111.079 107.113 113.256 105.33 115.655 104.794C116.376 104.633 124.336 109.127 125.876 109.96C125.882 109.953 125.888 109.945 125.893 109.938C126.238 110.148 126.193 110.132 125.876 109.96C116.203 122.174 39.9997 127.922 11.2233 110.938Z" fill="#39280C"/>
<path d="M11.2233 110.938C11.2233 108.243 16.1826 108.385 18.3175 108.208C19.9272 108.075 21.343 108.28 22.8499 108.785C23.9507 109.154 24.9963 109.685 26.1999 109.705C28.5333 109.744 29.7389 107.565 31.8161 106.809C33.9063 106.048 36.0901 105.328 38.3739 105.302C39.5421 105.29 40.7403 105.208 41.8553 105.567C42.6336 105.817 42.9828 105.942 43.6726 105.449C45.644 104.04 47.4598 101.539 50.3946 101.996C51.079 102.102 51.5858 102.522 52.2119 102.739C53.0357 103.025 53.9132 102.994 54.7737 103.101C57.1682 103.398 59.6072 103.365 62.0212 103.365C64.082 103.365 66.1091 104.257 67.944 105.019C70.2503 105.976 73.8118 106.322 76.2534 105.792C77.6524 105.488 78.9312 104.684 80.3807 104.608C81.6914 104.539 82.3039 105.003 83.457 105.479C86.4962 106.732 90.4283 106.696 93.5947 105.87C96.3256 105.157 99.2165 103.894 102.079 103.894C103.44 103.894 104.37 103.985 105.572 104.598C106.527 105.086 107.389 105.823 108.418 106.183C111.079 107.113 113.256 105.33 115.655 104.794C116.524 104.599 127.914 111.171 125.893 109.938C116.295 122.167 40.0171 127.932 11.2233 110.938Z" stroke="black" stroke-width="3" stroke-linecap="round"/>
<path d="M63.6477 0.975357C145.038 18.5939 129.367 78.497 114.201 111.721C88.372 119.069 57.1641 117.229 36.5 114.76C32.2503 114.252 28.4466 113.717 25.2273 113.231C9.05022 96.619 -19.2596 23.1244 63.6477 0.975357Z" fill="#316322"/>
<path d="M63.6477 0.975357C53.3685 17.0838 36.8545 62.6907 53.0315 116.251M63.6477 0.975357C90.4409 32.1854 88.0817 87.2224 81.8468 116.251M63.6477 0.975357C145.038 18.5939 129.367 78.497 114.201 111.721C88.372 119.069 57.1641 117.229 36.5 114.76C32.2503 114.252 28.4466 113.717 25.2273 113.231C9.05022 96.619 -19.2596 23.1244 63.6477 0.975357Z" stroke="black"/>
<path d="M36.7771 114C16.2835 86.37 21.223 26.867 62 2" stroke="#2A531E" stroke-linecap="round" stroke-linejoin="round"/>
<path d="M64 2C67.0303 36.3493 64 70.2009 69 116" stroke="#2A531E" stroke-linecap="round" stroke-linejoin="round"/>
<path d="M33.9199 14.9039L36.2514 7.97296M33.9199 14.9039L30.6558 10.5721M33.9199 14.9039L27.3917 15.7703M33.9199 14.9039L29.2569 20.9685M33.9199 14.9039L36.2514 18.8026M33.9199 14.9039H39.5154" stroke="#737D70" stroke-width="3" stroke-linecap="round" stroke-linejoin="round"/>
<path d="M8.70104 44.9603L6.17527 38.9623L9.2062 45.4601L2.13403 46.4598L9.71135 45.9599M9.71135 45.9599L4.65981 52.4577M9.71135 45.9599L12.7423 49.9586M9.71135 45.9599L13.7526 43.9606" stroke="#737D70" stroke-width="3" stroke-linecap="round" stroke-linejoin="round"/>
<path d="M4.1546 83.4471L11.7319 86.4461L11.2268 79.9483L12.2371 86.4461M12.2371 86.4461L16.2783 83.9469M12.2371 86.4461L9.20615 92.444L13.2474 86.4461L17.7938 90.9445" stroke="#737D70" stroke-width="3" stroke-linecap="round" stroke-linejoin="round"/>
<path d="M46.0825 57.9558L42.5464 60.9548L46.3309 57.5263M46.3309 57.5263L53.1546 59.4553L46.5876 57.456L52.1443 51.9579L46.0825 57.456L46.3309 57.5263ZM46.3309 57.5263L47.5979 62.9541M46.3309 57.5263L44.0619 49.9586" stroke="#737D70" stroke-width="3" stroke-linecap="round" stroke-linejoin="round"/>
<path d="M54.4369 22.3014L58.2839 17.4142L54.4369 21.4128L51.8723 16.9699L54.0095 22.3014L58.7113 24.9671L54.4369 22.3014ZM54.4369 22.3014L47.5979 24.0786M54.4369 22.3014L50.1625 28.9658" stroke="#737D70" stroke-width="3" stroke-linecap="round" stroke-linejoin="round"/>
<path d="M48.1031 93.9435L51.1341 86.9459L48.1031 94.4434L47.5643 93.9435M40.0207 86.9459L47.5643 93.9435M47.5643 93.9435L39.5155 96.9425L48.6083 94.4434L44.567 102.441L49.1134 94.4434L55.1753 95.9428" stroke="#737D70" stroke-width="3" stroke-linecap="round" stroke-linejoin="round"/>
<path d="M88.3576 49.9586L84.2532 57.1819H92.0515L84.2532 58.0397M83.8427 58.0848L89.9993 63.9538L83.8427 57.1819L79.3279 54.0217L83.8427 58.0848ZM83.8427 58.0848L84.2532 58.0397M78.9175 62.148L84.2532 58.0397" stroke="#737D70" stroke-width="3" stroke-linecap="round" stroke-linejoin="round"/>
<path d="M76.3918 16.9699V20.9685L83.464 20.4687L75.8867 21.9682L70.33 20.4687L76.3918 23.4677M76.3918 23.4677L72.8557 28.9658M76.3918 23.4677L82.9588 28.4659" stroke="#737D70" stroke-width="3" stroke-linecap="round" stroke-linejoin="round"/>
<path d="M99.6288 7.97296V15.4704L104.68 9.97228L100.134 15.9702L108.722 17.4697L99.3383 16.0038M99.3383 16.0038L99.1237 15.9702H94.0721L99.3383 16.0038ZM99.1237 20.9685L100.134 15.4704" stroke="#737D70" stroke-width="3" stroke-linecap="round" stroke-linejoin="round"/>
<path d="M124.887 36.963V46.4598L132.969 42.961L120.34 47.9593L124.887 46.9596L129.938 52.4577" stroke="#737D70" stroke-width="3" stroke-linecap="round" stroke-linejoin="round"/>
<path d="M84.4742 95.443L90.5361 89.9449M84.4742 95.443L80.433 89.9449M84.4742 95.443L78.4124 97.9421M84.9794 103.94V95.9428L90.5361 97.4423" stroke="#737D70" stroke-width="3" stroke-linecap="round" stroke-linejoin="round"/>
<path d="M122.866 85.9463L128.928 82.4475M122.866 85.9463L128.423 89.4451M122.866 85.9463L119.835 80.4482M122.866 85.9463L115.794 86.9459L122.866 86.4461L123.371 91.9442" stroke="#737D70" stroke-width="3" stroke-linecap="round" stroke-linejoin="round"/>
<path d="M101.5 114C111 89 116.7 32.4 65.5 2" stroke="#2A531E"/>
<path d="M49 174.396C49 174.919 50.3639 176.455 50.5847 175.682C50.7351 175.156 50.4375 174.616 49.9974 174.396" stroke="#C6AB40" stroke-width="3" stroke-linecap="round"/>
<path d="M85.7033 173C85.7033 175.043 87.8164 174.315 86.7007 173.199" stroke="#C6AB40" stroke-width="3" stroke-linecap="round"/>
<path d="M64.9579 184.168C64.9579 186.357 65.9464 188.955 68.4598 188.955C69.9337 188.955 71.305 188.86 72.0947 187.36C72.7969 186.025 73.1364 184.265 73.1364 182.772" stroke="#C6AB40" stroke-width="3" stroke-linecap="round"/>
</svg>
