<svg width="146" height="292" viewBox="0 0 146 292" fill="none" xmlns="http://www.w3.org/2000/svg">
<path d="M14.9 202.241L12 176.224C37.4964 159 128.496 161 143.479 175.5L139.938 202.241C137.223 204.095 134.164 205.784 130.832 207.309L119.269 288.174C96.7999 292.523 52.8319 292.118 37.3692 286.32L22.8688 207.071C19.2448 205.486 14.9 202.966 14.9 202.241Z" fill="#AA7622"/>
<path d="M12 176.224L14.9 202.241C14.9 202.966 19.2448 205.486 22.8688 207.071M12 176.224C20.4964 193.5 118.496 204 143.479 175.5M12 176.224C37.4964 159 128.496 161 143.479 175.5M22.8688 207.071C42.9964 223 110.996 222 139.938 202.241L143.479 175.5M22.8688 207.071L37.3692 286.32C52.8319 292.118 96.7999 292.523 119.269 288.174L130.866 207.071" stroke="black" stroke-width="1.44964"/>
<path d="M21.9965 182C21.9965 179.305 26.9052 179.446 29.0183 179.269C30.6116 179.136 32.0129 179.342 33.5044 179.847C34.5941 180.216 35.6289 180.747 36.8203 180.767C39.1298 180.806 40.3232 178.626 42.3792 177.87C44.448 177.109 46.6095 176.388 48.87 176.363C50.0264 176.35 51.2123 176.268 52.3159 176.627L52.3564 176.64C53.0987 176.882 53.444 176.994 54.1147 176.51C56.0659 175.1 57.8632 172.599 60.7681 173.055C61.4455 173.161 61.9471 173.581 62.5669 173.799C63.3823 174.085 64.2507 174.054 65.1025 174.161C67.4726 174.458 69.8867 174.425 72.276 174.425C74.3158 174.425 76.3222 175.317 78.1384 176.079C80.4212 177.036 83.9464 177.382 86.363 176.852C87.7477 176.548 89.0135 175.744 90.4482 175.668C91.7455 175.599 92.3518 176.063 93.4931 176.539C96.5013 177.793 100.393 177.757 103.527 176.93C106.23 176.217 109.092 174.953 111.925 174.953C113.272 174.953 114.193 175.044 115.382 175.658C116.327 176.146 117.181 176.884 118.199 177.244C120.833 178.174 122.988 176.39 125.362 175.854C126.076 175.693 133.955 180.188 135.479 181.022C135.485 181.015 135.491 181.007 135.496 181C135.837 181.21 135.793 181.194 135.479 181.022C125.905 193.24 50.4793 198.99 21.9965 182Z" fill="#39280C"/>
<path d="M21.9965 182C21.9965 179.305 26.9052 179.446 29.0183 179.269C30.6116 179.136 32.0129 179.342 33.5044 179.847C34.5941 180.216 35.6289 180.747 36.8203 180.767C39.1298 180.806 40.3232 178.626 42.3792 177.87C44.448 177.109 46.6095 176.388 48.87 176.363C50.0264 176.35 51.2123 176.268 52.3159 176.627C53.0863 176.878 53.432 177.003 54.1147 176.51C56.0659 175.1 57.8632 172.599 60.7681 173.055C61.4455 173.161 61.9471 173.581 62.5669 173.799C63.3823 174.085 64.2507 174.054 65.1025 174.161C67.4726 174.458 69.8867 174.425 72.276 174.425C74.3158 174.425 76.3222 175.317 78.1384 176.079C80.4212 177.036 83.9464 177.382 86.363 176.852C87.7477 176.548 89.0134 175.744 90.4482 175.668C91.7455 175.599 92.3518 176.063 93.4931 176.539C96.5013 177.793 100.393 177.757 103.527 176.93C106.23 176.217 109.092 174.953 111.925 174.953C113.272 174.953 114.193 175.044 115.382 175.658C116.327 176.146 117.181 176.884 118.199 177.244C120.833 178.174 122.988 176.39 125.362 175.854C126.223 175.66 137.496 182.233 135.496 181C125.996 193.233 50.4965 199 21.9965 182Z" stroke="black" stroke-width="3" stroke-linecap="round"/>
<path d="M73.886 72C154.446 89.6246 138.935 149.548 123.923 182.783C93.1003 191.646 54.5382 187.147 35.8576 184.294C19.8456 167.676 -8.17531 94.1566 73.886 72Z" fill="#316322"/>
<path d="M73.886 72C63.7117 88.1139 47.3662 133.736 63.3781 187.315M73.886 72C100.406 103.221 98.0707 158.277 91.8994 187.315M73.886 72C154.446 89.6246 138.935 149.548 123.923 182.783C93.1003 191.646 54.5382 187.147 35.8576 184.294C19.8456 167.676 -8.17531 94.1566 73.886 72Z" stroke="black"/>
<path d="M38.3259 85.181C38.419 85.7865 38.9229 86.3407 39.2666 86.8149C40.1945 88.0956 41.1674 89.3234 42.1444 90.5654C42.6406 91.1962 43.0713 91.8741 43.5617 92.5087C43.6768 92.6577 43.7553 92.8883 43.506 92.6944C42.6567 92.0338 41.9185 91.0796 41.3337 90.1941C41.0286 89.7321 40.4378 89.2923 40.2197 88.8016C40.0029 88.3139 40.4957 87.906 40.7272 87.4586C41.2777 86.3941 41.7866 85.3078 42.2001 84.1784C42.3843 83.6754 42.3348 83.0928 42.5343 82.6188C42.5494 82.5829 42.5699 82.2988 42.5591 82.396C42.4918 83.0012 42.0773 83.7313 41.8102 84.2589C40.3558 87.1323 38.8829 90.0069 37.7193 93.0162C37.4449 93.726 37.1389 94.4217 36.8838 95.139C36.7683 95.4641 36.7078 95.9664 36.432 96.2097C36.2966 96.3292 36.2156 95.0739 36.2092 94.9719C36.1581 94.1529 36.1732 93.2735 35.9864 92.4716C35.8079 91.7047 35.2978 91.465 34.6496 91.141C33.4855 90.5589 35.569 90.2619 36.036 90.1322C40.3823 88.9248 44.8833 88.9687 49.3545 88.9687" stroke="#737D70" stroke-width="3" stroke-linecap="round"/>
<path d="M17.0484 123.948C17.0484 123.228 17.0484 122.508 17.0484 121.788C17.0484 120.978 16.9089 120.021 17.0546 119.22C17.1024 118.957 17.3944 118.935 17.6054 118.935C18.1378 118.935 18.4316 119.855 18.6328 120.235C19.2842 121.464 19.8375 122.712 20.6008 123.88C20.8224 124.22 20.9846 124.624 21.2569 124.926C21.3241 125.001 21.492 125.108 21.492 125.223C21.492 125.505 19.7478 124.736 19.6725 124.703C17.9596 123.966 16.1958 123.329 14.3748 122.921C13.8401 122.801 12.2494 122.625 12.7842 122.506C13.1444 122.426 13.5462 122.497 13.9168 122.426C15.1346 122.191 16.3374 121.76 17.5126 121.374C19.7459 120.639 22.017 119.795 24.3513 119.43C24.5025 119.407 26.0441 119.155 25.6634 119.406C24.2674 120.326 23.0052 121.59 21.7272 122.667C20.1156 124.025 18.5183 125.456 16.8318 126.721C16.1311 127.247 15.6215 127.693 15.266 128.404" stroke="#737D70" stroke-width="3" stroke-linecap="round"/>
<path d="M22.3956 165.055C22.3956 165.87 22.3956 163.425 22.3956 162.611C22.3956 161.713 22.4276 160.912 23.2806 160.432C23.801 160.139 24.2935 159.135 24.5989 158.619C24.9163 158.082 25.6347 156.934 26.0161 158.155C26.2861 159.018 26.0818 160.297 25.9357 161.156C25.8142 161.87 25.7679 162.601 25.6262 163.31C25.6003 163.439 25.5835 163.924 25.4901 164.028C25.2613 164.282 22.8641 163.786 25.4406 164.108C27.3856 164.351 29.2383 164.832 31.122 165.365C31.5969 165.499 32.9771 165.946 32.4835 165.946C32.1649 165.946 31.7941 165.803 31.4995 165.705C30.0888 165.235 28.7604 164.532 27.3963 163.947C24.5602 162.732 21.5081 162.203 18.6761 160.989C18.0534 160.722 17.1532 160.093 16.4666 160.042C16.3569 160.034 15.5754 159.785 15.8478 160.067C17.0095 161.27 18.3057 162.329 19.264 163.718C19.9687 164.74 20.3902 165.816 20.8917 166.93C21.0671 167.32 21.3733 167.3 21.752 167.283C22.8749 167.233 23.2873 165.642 23.6458 164.832C24.3626 163.214 25.1557 162.171 26.7526 161.373C27.7764 160.861 28.9858 160.145 30.1318 159.937C30.3689 159.894 30.0765 160.043 30.0327 160.067C29.3638 160.427 28.7522 160.906 28.1142 161.317C25.6448 162.91 23.1914 164.681 21.4178 167.06C20.8077 167.879 20.683 168.669 20.4461 169.616C20.2361 170.456 21.3549 170.389 21.9624 170.514C23.3085 170.791 27.4462 170.848 26.0718 170.848C24.5219 170.848 24.5969 168.63 24.4627 167.518C24.3953 166.96 24.2852 165.832 24.7103 165.365C24.8561 165.204 25.0011 165.037 25.0692 164.832" stroke="#737D70" stroke-width="3" stroke-linecap="round"/>
<path d="M64.652 89.2389C67.642 89.2389 70.6462 89.1276 73.6256 89.4047C74.0314 89.4425 74.2231 89.4636 73.6901 89.5061C72.5243 89.5989 71.3827 89.6535 70.2121 89.6535C69.3837 89.6535 68.257 89.8375 67.4804 89.4692C66.9153 89.2012 66.5699 88.218 66.3979 87.6588C66.1951 86.9997 66.1306 86.3077 66.0431 85.6273C65.9884 85.2017 65.9762 85.121 66.1169 85.6273C66.4918 86.9772 67.132 88.3215 67.6831 89.6074C68.2191 90.8581 68.7462 92.1243 69.3415 93.348C69.5007 93.6753 69.6898 93.8741 69.277 93.758C68.3727 93.5036 67.5799 93.1623 66.7434 92.7215C66.0569 92.3597 65.3607 92.0348 64.6704 91.6896C64.5377 91.6232 65.0641 91.3551 65.0665 91.3533C65.8702 90.7776 66.5469 90.0551 67.204 89.3218C68.4894 87.8874 69.7385 86.4003 71.1012 85.0376C71.3321 84.8068 71.8058 84.5499 71.9488 84.2637" stroke="#737D70" stroke-width="3" stroke-linecap="round"/>
<path d="M55.2821 124.743C58.1443 124.743 61.0066 124.743 63.8688 124.743C63.8994 124.743 63.5427 124.827 63.5003 124.84C62.7589 125.072 62.0144 125.253 61.2522 125.407C60.368 125.585 59.4791 125.745 58.5896 125.895C58.2097 125.959 57.7787 126.04 57.3919 125.969C57.0133 125.898 57.1945 125.001 57.1846 124.734C57.141 123.556 56.391 122.492 55.8349 121.491C55.5026 120.893 55.3597 120.796 55.8026 121.408C56.5761 122.477 57.3492 123.686 58.304 124.6C58.6532 124.935 59.3375 125.433 59.8426 125.102C60.7579 124.504 61.2068 123.355 61.8327 122.504C61.9841 122.299 62.5729 121.815 62.3486 121.938C61.9744 122.142 61.6504 122.473 61.3444 122.762C60.5001 123.559 59.6899 124.396 58.8937 125.241C57.8345 126.364 56.6942 127.474 55.8164 128.751C55.6327 129.018 55.4792 129.401 55.2821 129.635C55.0191 129.948 54.7963 130.319 54.4529 130.548" stroke="#737D70" stroke-width="3" stroke-linecap="round"/>
<path d="M54.9504 161.69C54.9504 161.057 55.4732 160.397 55.7796 159.885C56.2226 159.144 56.6212 158.118 57.3459 157.595C57.3895 157.564 57.7432 157.338 57.6683 157.563C57.4312 158.274 56.2916 158.922 55.6645 159.23C55.1799 159.469 54.6629 159.699 54.1627 159.903C54.086 159.934 53.4959 160.041 53.7619 160.096C55.2253 160.401 56.6996 160.563 58.1382 160.999C59.8372 161.515 61.5609 162.339 63.0396 163.33C63.2654 163.482 64.0245 163.982 63.9011 163.303C63.8339 162.933 63.6745 162.389 63.316 162.349C61.8389 162.185 60.425 162.235 58.9858 161.755C58.883 161.721 58.2452 161.556 58.4054 161.395C59.1042 160.697 59.9543 160.122 60.6718 159.433C61.3933 158.741 61.9725 157.906 62.7264 157.25C62.9985 157.013 63.3177 156.801 62.7633 157.098C60.8959 158.096 59.4564 159.245 58.1889 160.935C57.7247 161.554 57.0415 162.004 56.7562 162.722C56.6238 163.056 56.4386 163.327 56.3601 163.68C56.3183 163.868 56.3231 164.2 56.1942 164.344C56.0948 164.455 55.9701 164.498 55.8625 164.592C55.8144 164.635 56.4395 163.572 56.5812 163.386C56.7971 163.102 58.4627 160.476 58.8891 161.566C59.2325 162.443 59.2252 163.353 59.7597 164.178C59.9082 164.407 60.3402 164.809 60.3402 165.09" stroke="#737D70" stroke-width="3" stroke-linecap="round"/>
<path d="M84.7341 88.6247C84.7341 87.2103 84.4207 85.3891 84.9998 84.0653C85.1186 83.7938 85.1841 83.8359 85.1629 84.1439C85.0861 85.2575 84.858 86.3689 84.6315 87.4592C84.5757 87.7275 84.4032 89.519 84.1302 89.597C83.8154 89.6869 83.3632 89.603 83.0432 89.603C82.4271 89.603 81.7995 89.5671 81.1953 89.7117C81.0666 89.7425 80.2462 90.1299 80.6518 89.9895C81.7502 89.6093 82.6986 89.2128 83.8887 89.1078C85.229 88.9896 86.6073 89.0314 87.9468 89.1441C88.4462 89.1861 89.9456 89.2769 89.4445 89.2769C87.9632 89.2769 86.7314 90.1885 85.3018 90.4485C85.1108 90.4832 85.0104 90.4026 85.0663 90.2069C85.114 90.0399 85.1159 91.0097 85.1025 91.1007C84.9479 92.1487 84.7253 93.2413 84.1483 94.1443C84.0257 94.3362 83.7054 94.9483 83.6532 94.3738C83.5207 92.9169 84.2012 92.056 85.0481 90.9739C85.6355 90.2234 86.5321 91.5007 87.0833 91.8314C88.4857 92.6729 89.9221 93.0012 91.4494 93.4921C91.892 93.6343 90.8273 93.4814 90.7489 93.4679C89.3435 93.2256 88.1113 92.2957 87.041 91.4026C85.4274 90.0562 84.0198 88.2579 82.9104 86.4749C82.6667 86.0832 82.3972 85.9888 82.0166 85.7985" stroke="#737D70" stroke-width="3" stroke-linecap="round"/>
<path d="M91.3104 124.016C91.3104 121.866 92.5405 120.097 93.375 118.22C93.4835 117.976 93.8515 117.308 93.8515 117.576C93.8515 118.052 93.4656 118.612 93.2515 118.996C92.1809 120.918 91.102 122.842 89.9163 124.696C88.8871 126.305 87.7562 127.827 86.6517 129.381C86.5875 129.471 86.3417 130.078 86.1576 130.025C85.9643 129.97 86.8121 125.74 86.8282 125.446C86.904 124.058 86.8635 122.662 86.8635 121.272C86.8635 120.846 86.7644 120.373 87.287 120.708C89.5182 122.136 91.5623 123.598 94.0456 124.616C96.3112 125.545 98.7832 126.423 101.21 126.84C101.423 126.877 102.037 127.088 101.837 127.008C101.414 126.839 101.028 126.251 100.76 125.913C99.7817 124.681 99.6242 123.668 99.8513 122.128C99.8558 122.097 99.9797 121.652 99.9395 121.652C99.2783 121.652 98.2623 122.541 97.7778 122.869C95.4164 124.472 93.3265 126.465 90.9486 128.031C90.7737 128.146 89.7356 128.948 89.7222 128.587C89.6209 125.852 91.9245 124.141 94.3279 123.54" stroke="#737D70" stroke-width="3" stroke-linecap="round"/>
<path d="M93.5697 161.764C94.7842 161.554 96.758 161.669 97.7302 160.724C97.834 160.623 98.8249 159.753 98.7456 159.634C98.696 159.56 98.3122 160.066 98.308 160.071C97.8226 160.667 97.3001 161.239 96.7891 161.813C95.676 163.063 94.4636 164.233 93.0662 165.165C92.3167 165.664 92.381 165.522 92.381 164.653C92.381 163.483 92.4593 162.28 92.3728 161.111C92.365 161.006 91.7788 159.254 92.1829 159.254C93.0592 159.254 94.2646 160.861 94.8245 161.384C95.9668 162.451 97.2286 163.475 98.5887 164.257C99.1529 164.581 99.7092 164.904 100.256 165.255C100.585 165.467 100.732 165.526 100.405 165.181C99.338 164.055 98.6225 162.148 96.9873 161.648C96.0123 161.35 96.1025 161.193 97.1359 161.021" stroke="#737D70" stroke-width="3" stroke-linecap="round"/>
<path d="M132.054 155.672C132.115 155 132.453 154.305 132.648 153.666C132.875 152.923 132.935 151.918 133.317 151.239C133.946 150.12 134.707 152.764 134.729 152.848C135.089 154.251 135.471 155.648 135.835 157.05C135.882 157.233 136.151 157.667 135.81 157.587C134.842 157.359 133.899 156.834 132.946 156.53C131.676 156.125 130.476 155.657 129.264 155.11C127.485 154.307 132.399 153.756 132.78 153.74C134.261 153.678 135.74 153.591 137.222 153.591C137.663 153.591 138.058 153.615 138.476 153.476C138.783 153.374 138.916 153.208 138.559 153.467C137.296 154.386 135.98 155.251 134.671 156.101C133.67 156.751 132.718 157.385 131.79 158.132C131.587 158.295 131.372 158.538 131.163 158.643" stroke="#737D70" stroke-width="3" stroke-linecap="round"/>
<path d="M131.757 113.918C131.757 112.025 131.757 106.346 131.757 108.239C131.757 109.637 131.757 111.035 131.757 112.432C131.757 113.409 131.498 114.096 132.384 114.628C133.087 115.05 134.098 115.326 134.877 114.958C135.328 114.746 135.782 114.463 136.281 114.372C136.562 114.321 137.082 114.501 137.106 114.067C137.133 113.586 137.151 113.058 137.098 112.581C137.064 112.276 137.089 110.459 136.627 110.682C135.029 111.457 133.781 113.711 132.698 115.058C132.111 115.787 132.194 115.539 132.896 116.023C134.241 116.951 135.481 118.005 136.858 118.888C136.968 118.958 138.179 119.713 137.849 119.713C135.602 119.713 133.513 118.318 131.46 117.633" stroke="#737D70" stroke-width="3" stroke-linecap="round"/>
<path d="M110.36 85.6867C110.36 84.2228 110.36 82.7589 110.36 81.2951C110.36 80.9537 110.103 79.5125 110.542 80.288C111.328 81.679 111.803 83.2112 112.622 84.597C113.094 85.3959 113.831 86.3043 114.108 87.2056C114.378 88.0841 111.802 89.5048 111.285 88.9226C111.135 88.7536 113.401 87.8035 113.563 87.7339C114.721 87.2376 115.764 86.8754 117.047 86.8754C117.155 86.8754 117.719 86.9486 117.608 86.7268C117.252 86.0146 116.425 85.4411 115.924 84.8282C115.181 83.9202 115.209 85.0431 114.818 85.8848C114.161 87.2958 113.548 88.6818 112.176 89.5169C110.91 90.2875 109.521 90.005 109.469 88.2787C109.438 87.2818 110.101 90.1718 110.36 91.1349C110.564 91.891 110.709 92.6753 110.955 93.4132" stroke="#737D70" stroke-width="3" stroke-linecap="round"/>
<path d="M60 245.396C60 245.919 61.3639 247.455 61.5847 246.682C61.7351 246.156 61.4375 245.616 60.9974 245.396" stroke="#C6AB40" stroke-width="3" stroke-linecap="round"/>
<path d="M96.7033 244C96.7033 246.043 98.8164 245.315 97.7007 244.199" stroke="#C6AB40" stroke-width="3" stroke-linecap="round"/>
<path d="M75.9579 255.168C75.9579 257.357 76.9464 259.955 79.4598 259.955C80.9337 259.955 82.305 259.86 83.0947 258.36C83.7969 257.025 84.1364 255.265 84.1364 253.772" stroke="#C6AB40" stroke-width="3" stroke-linecap="round"/>
</svg>
