<svg width="148" height="292" viewBox="0 0 148 292" fill="none" xmlns="http://www.w3.org/2000/svg">
<path d="M14.9 202.241L12 176.224C37.4964 159 128.496 161 143.479 175.5L139.938 202.241C137.223 204.095 134.164 205.784 130.832 207.309L119.269 288.174C96.7999 292.523 52.8319 292.118 37.3692 286.32L22.8688 207.071C19.2448 205.486 14.9 202.966 14.9 202.241Z" fill="#AA7622"/>
<path d="M12 176.224L14.9 202.241C14.9 202.966 19.2448 205.486 22.8688 207.071M12 176.224C20.4964 193.5 118.496 204 143.479 175.5M12 176.224C37.4964 159 128.496 161 143.479 175.5M22.8688 207.071C42.9964 223 110.996 222 139.938 202.241L143.479 175.5M22.8688 207.071L37.3692 286.32C52.8319 292.118 96.7999 292.523 119.269 288.174L130.866 207.071" stroke="black" stroke-width="1.44964"/>
<path d="M21.9965 182C21.9965 179.305 26.9052 179.446 29.0183 179.269C30.6116 179.136 32.0129 179.342 33.5044 179.847C34.5941 180.216 35.6289 180.747 36.8203 180.767C39.1298 180.806 40.3232 178.626 42.3792 177.87C44.448 177.109 46.6095 176.388 48.87 176.363C50.0264 176.35 51.2123 176.268 52.3159 176.627L52.3564 176.64C53.0987 176.882 53.444 176.994 54.1147 176.51C56.0659 175.1 57.8632 172.599 60.7681 173.055C61.4455 173.161 61.9471 173.581 62.5669 173.799C63.3823 174.085 64.2507 174.054 65.1025 174.161C67.4726 174.458 69.8867 174.425 72.276 174.425C74.3158 174.425 76.3222 175.317 78.1384 176.079C80.4212 177.036 83.9464 177.382 86.363 176.852C87.7477 176.548 89.0135 175.744 90.4482 175.668C91.7455 175.599 92.3518 176.063 93.4931 176.539C96.5013 177.793 100.393 177.757 103.527 176.93C106.23 176.217 109.092 174.953 111.925 174.953C113.272 174.953 114.193 175.044 115.382 175.658C116.327 176.146 117.181 176.884 118.199 177.244C120.833 178.174 122.988 176.39 125.362 175.854C126.076 175.693 133.955 180.188 135.479 181.022C135.485 181.015 135.491 181.007 135.496 181C135.837 181.21 135.793 181.194 135.479 181.022C125.905 193.24 50.4793 198.99 21.9965 182Z" fill="#39280C"/>
<path d="M21.9965 182C21.9965 179.305 26.9052 179.446 29.0183 179.269C30.6116 179.136 32.0129 179.342 33.5044 179.847C34.5941 180.216 35.6289 180.747 36.8203 180.767C39.1298 180.806 40.3232 178.626 42.3792 177.87C44.448 177.109 46.6095 176.388 48.87 176.363C50.0264 176.35 51.2123 176.268 52.3159 176.627C53.0863 176.878 53.432 177.003 54.1147 176.51C56.0659 175.1 57.8632 172.599 60.7681 173.055C61.4455 173.161 61.9471 173.581 62.5669 173.799C63.3823 174.085 64.2507 174.054 65.1025 174.161C67.4726 174.458 69.8867 174.425 72.276 174.425C74.3158 174.425 76.3222 175.317 78.1384 176.079C80.4212 177.036 83.9464 177.382 86.363 176.852C87.7477 176.548 89.0134 175.744 90.4482 175.668C91.7455 175.599 92.3518 176.063 93.4931 176.539C96.5013 177.793 100.393 177.757 103.527 176.93C106.23 176.217 109.092 174.953 111.925 174.953C113.272 174.953 114.193 175.044 115.382 175.658C116.327 176.146 117.181 176.884 118.199 177.244C120.833 178.174 122.988 176.39 125.362 175.854C126.223 175.66 137.496 182.233 135.496 181C125.996 193.233 50.4965 199 21.9965 182Z" stroke="black" stroke-width="3" stroke-linecap="round"/>
<g filter="url(#filter0_d_10_272)">
<path d="M73.886 72C154.446 89.6246 138.935 149.548 123.923 182.783C93.1003 191.646 54.5382 187.147 35.8576 184.294C19.8456 167.676 -8.17531 94.1566 73.886 72Z" fill="#316322"/>
<path d="M73.886 72C63.7117 88.1139 47.3662 133.736 63.3781 187.315M73.886 72C100.406 103.221 98.0707 158.277 91.8994 187.315M73.886 72C154.446 89.6246 138.935 149.548 123.923 182.783C93.1003 191.646 54.5382 187.147 35.8576 184.294C19.8456 167.676 -8.17531 94.1566 73.886 72Z" stroke="black"/>
</g>
<path d="M75.9579 255.168C75.9579 257.357 76.9464 259.955 79.4598 259.955C80.9337 259.955 82.305 259.86 83.0947 258.36C83.7969 257.025 84.1364 255.265 84.1364 253.772" stroke="#C6AB40" stroke-width="3" stroke-linecap="round"/>
<path d="M59.673 254.981C60.1734 254.981 60.6172 254.921 61.0975 254.797C61.3531 254.731 61.5824 254.72 61.8459 254.72C62.1212 254.72 62.3964 254.72 62.6717 254.72" stroke="#E59ECB" stroke-width="5" stroke-linecap="round"/>
<path d="M96 253.261C96.5004 253.261 96.9442 253.201 97.4245 253.077C97.6801 253.011 97.9094 253 98.173 253C98.4482 253 98.7234 253 98.9987 253" stroke="#E59ECB" stroke-width="5" stroke-linecap="round"/>
<path d="M101.185 241C101.059 241.013 100.931 241.105 100.827 241.163C100.333 241.439 98.9827 242.207 98.5 242.5C97.3368 243.206 97.0192 243.388 95.8859 244.144C95.3049 244.531 94.6894 244.844 94.1151 245.226C94.077 245.252 93.9433 245.314 94.0271 245.354C94.4021 245.532 94.7819 245.695 95.1522 245.885C96.6711 246.666 98.1453 246.968 99.5 248C99.99 248.373 100.141 248.5 100.827 248.5" stroke="#C6AB40" stroke-width="3" stroke-linecap="round"/>
<path d="M57 242C57.1266 242.013 57.2542 242.105 57.3587 242.163C57.852 242.439 59.2026 243.207 59.6853 243.5C60.8485 244.206 61.1661 244.388 62.2994 245.144C62.8804 245.531 63.4959 245.844 64.0702 246.226C64.1083 246.252 64.242 246.314 64.1582 246.354C63.7832 246.532 63.4034 246.695 63.0331 246.885C61.5142 247.666 60.04 247.968 58.6853 249C58.1953 249.373 58.0444 249.5 57.3587 249.5" stroke="#C6AB40" stroke-width="3" stroke-linecap="round"/>
<path d="M14.9 202.241L12 176.224C37.4964 159 128.496 161 143.479 175.5L139.938 202.241C137.223 204.095 134.164 205.784 130.832 207.309L119.269 288.174C96.7999 292.523 52.8319 292.118 37.3692 286.32L22.8688 207.071C19.2448 205.486 14.9 202.966 14.9 202.241Z" fill="#AA7622"/>
<path d="M12 176.224L14.9 202.241C14.9 202.966 19.2448 205.486 22.8688 207.071M12 176.224C20.4964 193.5 118.496 204 143.479 175.5M12 176.224C37.4964 159 128.496 161 143.479 175.5M22.8688 207.071C42.9964 223 110.996 222 139.938 202.241L143.479 175.5M22.8688 207.071L37.3692 286.32C52.8319 292.118 96.7999 292.523 119.269 288.174L130.866 207.071" stroke="black" stroke-width="1.44964"/>
<path d="M21.9965 182C21.9965 179.305 26.9052 179.446 29.0183 179.269C30.6116 179.136 32.0129 179.342 33.5044 179.847C34.5941 180.216 35.6289 180.747 36.8203 180.767C39.1298 180.806 40.3232 178.626 42.3792 177.87C44.448 177.109 46.6095 176.388 48.87 176.363C50.0264 176.35 51.2123 176.268 52.3159 176.627L52.3564 176.64C53.0987 176.882 53.444 176.994 54.1147 176.51C56.0659 175.1 57.8632 172.599 60.7681 173.055C61.4455 173.161 61.9471 173.581 62.5669 173.799C63.3823 174.085 64.2507 174.054 65.1025 174.161C67.4726 174.458 69.8867 174.425 72.276 174.425C74.3158 174.425 76.3222 175.317 78.1384 176.079C80.4212 177.036 83.9464 177.382 86.363 176.852C87.7477 176.548 89.0135 175.744 90.4482 175.668C91.7455 175.599 92.3518 176.063 93.4931 176.539C96.5013 177.793 100.393 177.757 103.527 176.93C106.23 176.217 109.092 174.953 111.925 174.953C113.272 174.953 114.193 175.044 115.382 175.658C116.327 176.146 117.181 176.884 118.199 177.244C120.833 178.174 122.988 176.39 125.362 175.854C126.076 175.693 133.955 180.188 135.479 181.022C135.485 181.015 135.491 181.007 135.496 181C135.837 181.21 135.793 181.194 135.479 181.022C125.905 193.24 50.4793 198.99 21.9965 182Z" fill="#39280C"/>
<path d="M21.9965 182C21.9965 179.305 26.9052 179.446 29.0183 179.269C30.6116 179.136 32.0129 179.342 33.5044 179.847C34.5941 180.216 35.6289 180.747 36.8203 180.767C39.1298 180.806 40.3232 178.626 42.3792 177.87C44.448 177.109 46.6095 176.388 48.87 176.363C50.0264 176.35 51.2123 176.268 52.3159 176.627C53.0863 176.878 53.432 177.003 54.1147 176.51C56.0659 175.1 57.8632 172.599 60.7681 173.055C61.4455 173.161 61.9471 173.581 62.5669 173.799C63.3823 174.085 64.2507 174.054 65.1025 174.161C67.4726 174.458 69.8867 174.425 72.276 174.425C74.3158 174.425 76.3222 175.317 78.1384 176.079C80.4212 177.036 83.9464 177.382 86.363 176.852C87.7477 176.548 89.0134 175.744 90.4482 175.668C91.7455 175.599 92.3518 176.063 93.4931 176.539C96.5013 177.793 100.393 177.757 103.527 176.93C106.23 176.217 109.092 174.953 111.925 174.953C113.272 174.953 114.193 175.044 115.382 175.658C116.327 176.146 117.181 176.884 118.199 177.244C120.833 178.174 122.988 176.39 125.362 175.854C126.223 175.66 137.496 182.233 135.496 181C125.996 193.233 50.4965 199 21.9965 182Z" stroke="black" stroke-width="3" stroke-linecap="round"/>
<g filter="url(#filter1_d_10_272)">
<path d="M73.886 72C154.446 89.6246 138.935 149.548 123.923 182.783C93.1003 191.646 54.5382 187.147 35.8576 184.294C19.8456 167.676 -8.17531 94.1566 73.886 72Z" fill="#316322"/>
<path d="M73.886 72C63.7117 88.1139 47.3662 133.736 63.3781 187.315M73.886 72C100.406 103.221 98.0707 158.277 91.8994 187.315M73.886 72C154.446 89.6246 138.935 149.548 123.923 182.783C93.1003 191.646 54.5382 187.147 35.8576 184.294C19.8456 167.676 -8.17531 94.1566 73.886 72Z" stroke="black"/>
</g>
<path d="M75.9579 255.168C75.9579 257.357 76.9464 259.955 79.4598 259.955C80.9337 259.955 82.305 259.86 83.0947 258.36C83.7969 257.025 84.1364 255.265 84.1364 253.772" stroke="#C6AB40" stroke-width="3" stroke-linecap="round"/>
<path d="M60 245.396C60 245.919 61.3639 247.455 61.5847 246.682C61.7351 246.156 61.4375 245.616 60.9974 245.396" stroke="#C6AB40" stroke-width="3" stroke-linecap="round"/>
<path d="M96.7033 244C96.7033 246.043 98.8164 245.315 97.7007 244.199" stroke="#C6AB40" stroke-width="3" stroke-linecap="round"/>
<path d="M75.9579 255.168C75.9579 257.357 76.9464 259.955 79.4598 259.955C80.9337 259.955 82.305 259.86 83.0947 258.36C83.7969 257.025 84.1364 255.265 84.1364 253.772" stroke="#C6AB40" stroke-width="3" stroke-linecap="round"/>
<g filter="url(#filter2_d_10_272)">
<path d="M44.4615 85.9333L46.7692 79M44.4615 85.9333L41.2308 81.6M44.4615 85.9333L38 86.8M44.4615 85.9333L39.8462 92M44.4615 85.9333L46.7692 89.8333M44.4615 85.9333H50" stroke="#737D70" stroke-width="3" stroke-linecap="round" stroke-linejoin="round"/>
</g>
<g filter="url(#filter3_d_10_272)">
<path d="M19.5 116L17 110L20 116.5L13 117.5L20.5 117M20.5 117L15.5 123.5M20.5 117L23.5 121M20.5 117L24.5 115" stroke="#737D70" stroke-width="3" stroke-linecap="round" stroke-linejoin="round"/>
</g>
<g filter="url(#filter4_d_10_272)">
<path d="M15 154.5L22.5 157.5L22 151L23 157.5M23 157.5L27 155M23 157.5L20 163.5L24 157.5L28.5 162" stroke="#737D70" stroke-width="3" stroke-linecap="round" stroke-linejoin="round"/>
</g>
<g filter="url(#filter5_d_10_272)">
<path d="M56.5 129L53 132L56.7459 128.57M56.7459 128.57L63.5 130.5L57 128.5L62.5 123L56.5 128.5L56.7459 128.57ZM56.7459 128.57L58 134M56.7459 128.57L54.5 121" stroke="#737D70" stroke-width="3" stroke-linecap="round" stroke-linejoin="round" shape-rendering="crispEdges"/>
</g>
<g filter="url(#filter6_d_10_272)">
<path d="M64.7692 93.3333L68.5769 88.4444L64.7692 92.4444L62.2308 88L64.3462 93.3333L69 96L64.7692 93.3333ZM64.7692 93.3333L58 95.1111M64.7692 93.3333L60.5385 100" stroke="#737D70" stroke-width="3" stroke-linecap="round" stroke-linejoin="round" shape-rendering="crispEdges"/>
</g>
<g filter="url(#filter7_d_10_272)">
<path d="M58.5 165L61.5 158L58.5 165.5L57.9667 165M50.5 158L57.9667 165M57.9667 165L50 168L59 165.5L55 173.5L59.5 165.5L65.5 167" stroke="#737D70" stroke-width="3" stroke-linecap="round" stroke-linejoin="round"/>
</g>
<g filter="url(#filter8_d_10_272)">
<path d="M98.3438 121L94.2812 128.226H102L94.2812 129.084M93.875 129.129L99.9688 135L93.875 128.226L89.4062 125.065L93.875 129.129ZM93.875 129.129L94.2812 129.084M89 133.194L94.2812 129.084" stroke="#737D70" stroke-width="3" stroke-linecap="round" stroke-linejoin="round" shape-rendering="crispEdges"/>
</g>
<path d="M86.5 88V92L93.5 91.5L86 93L80.5 91.5L86.5 94.5M86.5 94.5L83 100M86.5 94.5L93 99.5" stroke="#737D70" stroke-width="3" stroke-linecap="round" stroke-linejoin="round"/>
<g filter="url(#filter9_d_10_272)">
<path d="M109.5 79V86.5L114.5 81L110 87L118.5 88.5L109.212 87.0335M109.212 87.0335L109 87H104L109.212 87.0335ZM109 92L110 86.5" stroke="#737D70" stroke-width="3" stroke-linecap="round" stroke-linejoin="round" shape-rendering="crispEdges"/>
</g>
<g filter="url(#filter10_d_10_272)">
<path d="M134.5 108V117.5L142.5 114L130 119L134.5 118L139.5 123.5" stroke="#737D70" stroke-width="3" stroke-linecap="round" stroke-linejoin="round" shape-rendering="crispEdges"/>
</g>
<g filter="url(#filter11_d_10_272)">
<path d="M94.5 166.5L100.5 161M94.5 166.5L90.5 161M94.5 166.5L88.5 169M95 175V167L100.5 168.5" stroke="#737D70" stroke-width="3" stroke-linecap="round" stroke-linejoin="round"/>
</g>
<path d="M132.5 157L138.5 153.5M132.5 157L138 160.5M132.5 157L129.5 151.5M132.5 157L125.5 158L132.5 157.5L133 163" stroke="#737D70" stroke-width="3" stroke-linecap="round" stroke-linejoin="round"/>
<defs>
<filter id="filter0_d_10_272" x="13.4965" y="71.4855" width="127" height="125.014" filterUnits="userSpaceOnUse" color-interpolation-filters="sRGB">
<feFlood flood-opacity="0" result="BackgroundImageFix"/>
<feColorMatrix in="SourceAlpha" type="matrix" values="0 0 0 0 0 0 0 0 0 0 0 0 0 0 0 0 0 0 127 0" result="hardAlpha"/>
<feOffset dy="4"/>
<feGaussianBlur stdDeviation="2"/>
<feComposite in2="hardAlpha" operator="out"/>
<feColorMatrix type="matrix" values="0 0 0 0 0 0 0 0 0 0 0 0 0 0 0 0 0 0 0.25 0"/>
<feBlend mode="normal" in2="BackgroundImageFix" result="effect1_dropShadow_10_272"/>
<feBlend mode="normal" in="SourceGraphic" in2="effect1_dropShadow_10_272" result="shape"/>
</filter>
<filter id="filter1_d_10_272" x="13.4965" y="71.4855" width="127" height="125.014" filterUnits="userSpaceOnUse" color-interpolation-filters="sRGB">
<feFlood flood-opacity="0" result="BackgroundImageFix"/>
<feColorMatrix in="SourceAlpha" type="matrix" values="0 0 0 0 0 0 0 0 0 0 0 0 0 0 0 0 0 0 127 0" result="hardAlpha"/>
<feOffset dy="4"/>
<feGaussianBlur stdDeviation="2"/>
<feComposite in2="hardAlpha" operator="out"/>
<feColorMatrix type="matrix" values="0 0 0 0 0 0 0 0 0 0 0 0 0 0 0 0 0 0 0.25 0"/>
<feBlend mode="normal" in2="BackgroundImageFix" result="effect1_dropShadow_10_272"/>
<feBlend mode="normal" in="SourceGraphic" in2="effect1_dropShadow_10_272" result="shape"/>
</filter>
<filter id="filter2_d_10_272" x="32.4998" y="77.4996" width="23.0002" height="24.0005" filterUnits="userSpaceOnUse" color-interpolation-filters="sRGB">
<feFlood flood-opacity="0" result="BackgroundImageFix"/>
<feColorMatrix in="SourceAlpha" type="matrix" values="0 0 0 0 0 0 0 0 0 0 0 0 0 0 0 0 0 0 127 0" result="hardAlpha"/>
<feOffset dy="4"/>
<feGaussianBlur stdDeviation="2"/>
<feComposite in2="hardAlpha" operator="out"/>
<feColorMatrix type="matrix" values="0 0 0 0 0 0 0 0 0 0 0 0 0 0 0 0 0 0 0.25 0"/>
<feBlend mode="normal" in2="BackgroundImageFix" result="effect1_dropShadow_10_272"/>
<feBlend mode="normal" in="SourceGraphic" in2="effect1_dropShadow_10_272" result="shape"/>
</filter>
<filter id="filter3_d_10_272" x="7.49988" y="108.5" width="22.5004" height="24.5004" filterUnits="userSpaceOnUse" color-interpolation-filters="sRGB">
<feFlood flood-opacity="0" result="BackgroundImageFix"/>
<feColorMatrix in="SourceAlpha" type="matrix" values="0 0 0 0 0 0 0 0 0 0 0 0 0 0 0 0 0 0 127 0" result="hardAlpha"/>
<feOffset dy="4"/>
<feGaussianBlur stdDeviation="2"/>
<feComposite in2="hardAlpha" operator="out"/>
<feColorMatrix type="matrix" values="0 0 0 0 0 0 0 0 0 0 0 0 0 0 0 0 0 0 0.25 0"/>
<feBlend mode="normal" in2="BackgroundImageFix" result="effect1_dropShadow_10_272"/>
<feBlend mode="normal" in="SourceGraphic" in2="effect1_dropShadow_10_272" result="shape"/>
</filter>
<filter id="filter4_d_10_272" x="9.49957" y="149.5" width="24.5004" height="23.5003" filterUnits="userSpaceOnUse" color-interpolation-filters="sRGB">
<feFlood flood-opacity="0" result="BackgroundImageFix"/>
<feColorMatrix in="SourceAlpha" type="matrix" values="0 0 0 0 0 0 0 0 0 0 0 0 0 0 0 0 0 0 127 0" result="hardAlpha"/>
<feOffset dy="4"/>
<feGaussianBlur stdDeviation="2"/>
<feComposite in2="hardAlpha" operator="out"/>
<feColorMatrix type="matrix" values="0 0 0 0 0 0 0 0 0 0 0 0 0 0 0 0 0 0 0.25 0"/>
<feBlend mode="normal" in2="BackgroundImageFix" result="effect1_dropShadow_10_272"/>
<feBlend mode="normal" in="SourceGraphic" in2="effect1_dropShadow_10_272" result="shape"/>
</filter>
<filter id="filter5_d_10_272" x="47.5" y="119.5" width="21.5004" height="24.0007" filterUnits="userSpaceOnUse" color-interpolation-filters="sRGB">
<feFlood flood-opacity="0" result="BackgroundImageFix"/>
<feColorMatrix in="SourceAlpha" type="matrix" values="0 0 0 0 0 0 0 0 0 0 0 0 0 0 0 0 0 0 127 0" result="hardAlpha"/>
<feOffset dy="4"/>
<feGaussianBlur stdDeviation="2"/>
<feComposite in2="hardAlpha" operator="out"/>
<feColorMatrix type="matrix" values="0 0 0 0 0 0 0 0 0 0 0 0 0 0 0 0 0 0 0.25 0"/>
<feBlend mode="normal" in2="BackgroundImageFix" result="effect1_dropShadow_10_272"/>
<feBlend mode="normal" in="SourceGraphic" in2="effect1_dropShadow_10_272" result="shape"/>
</filter>
<filter id="filter6_d_10_272" x="52.4996" y="86.4998" width="22.0005" height="23.0004" filterUnits="userSpaceOnUse" color-interpolation-filters="sRGB">
<feFlood flood-opacity="0" result="BackgroundImageFix"/>
<feColorMatrix in="SourceAlpha" type="matrix" values="0 0 0 0 0 0 0 0 0 0 0 0 0 0 0 0 0 0 127 0" result="hardAlpha"/>
<feOffset dy="4"/>
<feGaussianBlur stdDeviation="2"/>
<feComposite in2="hardAlpha" operator="out"/>
<feColorMatrix type="matrix" values="0 0 0 0 0 0 0 0 0 0 0 0 0 0 0 0 0 0 0.25 0"/>
<feBlend mode="normal" in2="BackgroundImageFix" result="effect1_dropShadow_10_272"/>
<feBlend mode="normal" in="SourceGraphic" in2="effect1_dropShadow_10_272" result="shape"/>
</filter>
<filter id="filter7_d_10_272" x="44.4996" y="156.5" width="26.5007" height="26.5006" filterUnits="userSpaceOnUse" color-interpolation-filters="sRGB">
<feFlood flood-opacity="0" result="BackgroundImageFix"/>
<feColorMatrix in="SourceAlpha" type="matrix" values="0 0 0 0 0 0 0 0 0 0 0 0 0 0 0 0 0 0 127 0" result="hardAlpha"/>
<feOffset dy="4"/>
<feGaussianBlur stdDeviation="2"/>
<feComposite in2="hardAlpha" operator="out"/>
<feColorMatrix type="matrix" values="0 0 0 0 0 0 0 0 0 0 0 0 0 0 0 0 0 0 0.25 0"/>
<feBlend mode="normal" in2="BackgroundImageFix" result="effect1_dropShadow_10_272"/>
<feBlend mode="normal" in="SourceGraphic" in2="effect1_dropShadow_10_272" result="shape"/>
</filter>
<filter id="filter8_d_10_272" x="83.4999" y="119.5" width="24.0001" height="25.0002" filterUnits="userSpaceOnUse" color-interpolation-filters="sRGB">
<feFlood flood-opacity="0" result="BackgroundImageFix"/>
<feColorMatrix in="SourceAlpha" type="matrix" values="0 0 0 0 0 0 0 0 0 0 0 0 0 0 0 0 0 0 127 0" result="hardAlpha"/>
<feOffset dy="4"/>
<feGaussianBlur stdDeviation="2"/>
<feComposite in2="hardAlpha" operator="out"/>
<feColorMatrix type="matrix" values="0 0 0 0 0 0 0 0 0 0 0 0 0 0 0 0 0 0 0.25 0"/>
<feBlend mode="normal" in2="BackgroundImageFix" result="effect1_dropShadow_10_272"/>
<feBlend mode="normal" in="SourceGraphic" in2="effect1_dropShadow_10_272" result="shape"/>
</filter>
<filter id="filter9_d_10_272" x="98.5" y="77.5" width="25.5002" height="24.0002" filterUnits="userSpaceOnUse" color-interpolation-filters="sRGB">
<feFlood flood-opacity="0" result="BackgroundImageFix"/>
<feColorMatrix in="SourceAlpha" type="matrix" values="0 0 0 0 0 0 0 0 0 0 0 0 0 0 0 0 0 0 127 0" result="hardAlpha"/>
<feOffset dy="4"/>
<feGaussianBlur stdDeviation="2"/>
<feComposite in2="hardAlpha" operator="out"/>
<feColorMatrix type="matrix" values="0 0 0 0 0 0 0 0 0 0 0 0 0 0 0 0 0 0 0.25 0"/>
<feBlend mode="normal" in2="BackgroundImageFix" result="effect1_dropShadow_10_272"/>
<feBlend mode="normal" in="SourceGraphic" in2="effect1_dropShadow_10_272" result="shape"/>
</filter>
<filter id="filter10_d_10_272" x="124.5" y="106.5" width="23.5007" height="26.5" filterUnits="userSpaceOnUse" color-interpolation-filters="sRGB">
<feFlood flood-opacity="0" result="BackgroundImageFix"/>
<feColorMatrix in="SourceAlpha" type="matrix" values="0 0 0 0 0 0 0 0 0 0 0 0 0 0 0 0 0 0 127 0" result="hardAlpha"/>
<feOffset dy="4"/>
<feGaussianBlur stdDeviation="2"/>
<feComposite in2="hardAlpha" operator="out"/>
<feColorMatrix type="matrix" values="0 0 0 0 0 0 0 0 0 0 0 0 0 0 0 0 0 0 0.25 0"/>
<feBlend mode="normal" in2="BackgroundImageFix" result="effect1_dropShadow_10_272"/>
<feBlend mode="normal" in="SourceGraphic" in2="effect1_dropShadow_10_272" result="shape"/>
</filter>
<filter id="filter11_d_10_272" x="82.9996" y="159.5" width="23.0007" height="25.0001" filterUnits="userSpaceOnUse" color-interpolation-filters="sRGB">
<feFlood flood-opacity="0" result="BackgroundImageFix"/>
<feColorMatrix in="SourceAlpha" type="matrix" values="0 0 0 0 0 0 0 0 0 0 0 0 0 0 0 0 0 0 127 0" result="hardAlpha"/>
<feOffset dy="4"/>
<feGaussianBlur stdDeviation="2"/>
<feComposite in2="hardAlpha" operator="out"/>
<feColorMatrix type="matrix" values="0 0 0 0 0 0 0 0 0 0 0 0 0 0 0 0 0 0 0.25 0"/>
<feBlend mode="normal" in2="BackgroundImageFix" result="effect1_dropShadow_10_272"/>
<feBlend mode="normal" in="SourceGraphic" in2="effect1_dropShadow_10_272" result="shape"/>
</filter>
</defs>
</svg>
