<svg width="143" height="293" viewBox="0 0 143 293" fill="none" xmlns="http://www.w3.org/2000/svg">
<path d="M7.92986 202.172L5 176.164C30.7593 158.946 122.697 160.945 137.834 175.44L134.257 202.172C131.514 204.025 128.423 205.713 125.057 207.238L113.375 288.076C90.6741 292.423 46.2528 292.018 30.6307 286.222L15.9809 207C12.3195 205.416 7.92986 202.896 7.92986 202.172Z" fill="#AA7622"/>
<path d="M5 176.164L7.92986 202.172C7.92986 202.896 12.3195 205.416 15.9809 207M5 176.164C13.584 193.434 112.594 203.93 137.834 175.44M5 176.164C30.7593 158.946 122.697 160.945 137.834 175.44M15.9809 207C36.316 222.924 105.017 221.924 134.257 202.172L137.834 175.44M15.9809 207L30.6307 286.222C46.2528 292.018 90.6741 292.423 113.375 288.076L125.092 207" stroke="black" stroke-width="1.44964"/>
<path d="M15.0996 181.938C15.0996 179.243 20.0589 179.385 22.1938 179.208C23.8035 179.075 25.2193 179.28 26.7262 179.785C27.827 180.154 28.8726 180.685 30.0762 180.705C32.4096 180.744 33.6152 178.565 35.6924 177.809C37.7826 177.048 39.9663 176.328 42.2502 176.302C43.4184 176.29 44.6166 176.208 45.7316 176.567L45.7725 176.58C46.5224 176.821 46.8713 176.934 47.5489 176.449C49.5203 175.04 51.3361 172.539 54.2709 172.996C54.9553 173.102 55.4621 173.522 56.0882 173.739C56.912 174.025 57.7895 173.994 58.65 174.101C61.0445 174.398 63.4835 174.365 65.8975 174.365C67.9583 174.365 69.9854 175.257 71.8203 176.019C74.1266 176.976 77.6881 177.322 80.1297 176.792C81.5287 176.488 82.8075 175.684 84.257 175.608C85.5677 175.539 86.1802 176.003 87.3333 176.479C90.3725 177.732 94.3046 177.696 97.471 176.87C100.202 176.157 103.093 174.894 105.956 174.894C107.316 174.894 108.247 174.985 109.448 175.598C110.403 176.086 111.265 176.823 112.294 177.183C114.955 178.113 117.132 176.33 119.531 175.794C120.252 175.633 128.212 180.127 129.752 180.96C129.758 180.953 129.764 180.945 129.77 180.938C130.114 181.148 130.069 181.132 129.752 180.96C120.08 193.174 43.876 198.922 15.0996 181.938Z" fill="#39280C"/>
<path d="M15.0996 181.938C15.0996 179.243 20.0589 179.385 22.1938 179.208C23.8035 179.075 25.2193 179.28 26.7262 179.785C27.827 180.154 28.8726 180.685 30.0762 180.705C32.4096 180.744 33.6152 178.565 35.6924 177.809C37.7826 177.048 39.9663 176.328 42.2502 176.302C43.4184 176.29 44.6166 176.208 45.7316 176.567C46.5099 176.817 46.8591 176.942 47.5489 176.449C49.5203 175.04 51.3361 172.539 54.2709 172.996C54.9553 173.102 55.4621 173.522 56.0882 173.739C56.912 174.025 57.7895 173.994 58.65 174.101C61.0445 174.398 63.4835 174.365 65.8975 174.365C67.9583 174.365 69.9854 175.257 71.8203 176.019C74.1266 176.976 77.6881 177.322 80.1297 176.792C81.5287 176.488 82.8075 175.684 84.257 175.608C85.5677 175.539 86.1802 176.003 87.3333 176.479C90.3725 177.732 94.3046 177.696 97.471 176.87C100.202 176.157 103.093 174.894 105.956 174.894C107.316 174.894 108.247 174.985 109.448 175.598C110.403 176.086 111.265 176.823 112.294 177.183C114.955 178.113 117.132 176.33 119.531 175.794C120.4 175.599 131.79 182.171 129.77 180.938C120.172 193.167 43.8934 198.932 15.0996 181.938Z" stroke="black" stroke-width="3" stroke-linecap="round"/>
<g filter="url(#filter0_d_10_832)">
<path d="M67.524 71.9754C148.915 89.5939 133.243 149.497 118.077 182.721C86.9365 191.58 47.9768 187.083 29.1036 184.231C12.9266 167.619 -15.3833 94.1244 67.524 71.9754Z" fill="#316322"/>
<path d="M67.524 71.9754C57.2449 88.0838 40.7308 133.691 56.9078 187.251M67.524 71.9754C94.3172 103.185 91.9581 158.222 85.7232 187.251M67.524 71.9754C148.915 89.5939 133.243 149.497 118.077 182.721C86.9365 191.58 47.9768 187.083 29.1036 184.231C12.9266 167.619 -15.3833 94.1244 67.524 71.9754Z" stroke="black"/>
</g>
<g filter="url(#filter1_d_10_832)">
<path d="M37.7962 85.9039L40.1277 78.973M37.7962 85.9039L34.5321 81.5721M37.7962 85.9039L31.268 86.7703M37.7962 85.9039L33.1332 91.9685M37.7962 85.9039L40.1277 89.8026M37.7962 85.9039H43.3917" stroke="#737D70" stroke-width="3" stroke-linecap="round" stroke-linejoin="round"/>
</g>
<g filter="url(#filter2_d_10_832)">
<path d="M12.5774 115.96L10.0516 109.962L13.0825 116.46L6.01035 117.46L13.5877 116.96M13.5877 116.96L8.53612 123.458M13.5877 116.96L16.6186 120.959M13.5877 116.96L17.6289 114.961" stroke="#737D70" stroke-width="3" stroke-linecap="round" stroke-linejoin="round"/>
</g>
<g filter="url(#filter3_d_10_832)">
<path d="M8.03091 154.447L15.6082 157.446L15.1031 150.948L16.1134 157.446M16.1134 157.446L20.1546 154.947M16.1134 157.446L13.0825 163.444L17.1237 157.446L21.6701 161.945" stroke="#737D70" stroke-width="3" stroke-linecap="round" stroke-linejoin="round"/>
</g>
<g filter="url(#filter4_d_10_832)">
<path d="M49.9588 128.956L46.4227 131.955L50.2072 128.526M50.2072 128.526L57.0309 130.455L50.4639 128.456L56.0206 122.958L49.9588 128.456L50.2072 128.526ZM50.2072 128.526L51.4742 133.954M50.2072 128.526L47.9382 120.959" stroke="#737D70" stroke-width="3" stroke-linecap="round" stroke-linejoin="round" shape-rendering="crispEdges"/>
</g>
<g filter="url(#filter5_d_10_832)">
<path d="M58.3132 93.3014L62.1602 88.4142L58.3132 92.4128L55.7486 87.9699L57.8858 93.3014L62.5876 95.9671L58.3132 93.3014ZM58.3132 93.3014L51.4742 95.0786M58.3132 93.3014L54.0388 99.9658" stroke="#737D70" stroke-width="3" stroke-linecap="round" stroke-linejoin="round" shape-rendering="crispEdges"/>
</g>
<g filter="url(#filter6_d_10_832)">
<path d="M51.9794 164.944L55.0104 157.946L51.9794 165.443L51.4406 164.944M43.897 157.946L51.4406 164.944M51.4406 164.944L43.3918 167.943L52.4846 165.443L48.4434 173.441L52.9898 165.443L59.0516 166.943" stroke="#737D70" stroke-width="3" stroke-linecap="round" stroke-linejoin="round"/>
</g>
<g filter="url(#filter7_d_10_832)">
<path d="M92.2339 120.959L88.1295 128.182H95.9278L88.1295 129.04M87.7191 129.085L93.8756 134.954L87.7191 128.182L83.2042 125.022L87.7191 129.085ZM87.7191 129.085L88.1295 129.04M82.7938 133.148L88.1295 129.04" stroke="#737D70" stroke-width="3" stroke-linecap="round" stroke-linejoin="round" shape-rendering="crispEdges"/>
</g>
<path d="M80.2681 87.9699V91.9685L87.3403 91.4687L79.763 92.9682L74.2063 91.4687L80.2681 94.4677M80.2681 94.4677L76.732 99.9658M80.2681 94.4677L86.8351 99.4659" stroke="#737D70" stroke-width="3" stroke-linecap="round" stroke-linejoin="round"/>
<g filter="url(#filter8_d_10_832)">
<path d="M103.505 78.973V86.4704L108.557 80.9723L104.01 86.9702L112.598 88.4697L103.215 87.0038M103.215 87.0038L103 86.9702H97.9485L103.215 87.0038ZM103 91.9685L104.01 86.4704" stroke="#737D70" stroke-width="3" stroke-linecap="round" stroke-linejoin="round" shape-rendering="crispEdges"/>
</g>
<g filter="url(#filter9_d_10_832)">
<path d="M128.763 107.963V117.46L136.845 113.961L124.217 118.959L128.763 117.96L133.814 123.458" stroke="#737D70" stroke-width="3" stroke-linecap="round" stroke-linejoin="round" shape-rendering="crispEdges"/>
</g>
<g filter="url(#filter10_d_10_832)">
<path d="M88.3505 166.443L94.4124 160.945M88.3505 166.443L84.3093 160.945M88.3505 166.443L82.2887 168.942M88.8557 174.94V166.943L94.4124 168.442" stroke="#737D70" stroke-width="3" stroke-linecap="round" stroke-linejoin="round"/>
</g>
<path d="M126.742 156.946L132.804 153.447M126.742 156.946L132.299 160.445M126.742 156.946L123.711 151.448M126.742 156.946L119.67 157.946L126.742 157.446L127.247 162.944" stroke="#737D70" stroke-width="3" stroke-linecap="round" stroke-linejoin="round"/>
<path d="M54 245.396C54 245.919 55.3639 247.455 55.5847 246.682C55.7351 246.156 55.4375 245.616 54.9974 245.396" stroke="#C6AB40" stroke-width="3" stroke-linecap="round"/>
<path d="M90.7033 244C90.7033 246.043 92.8164 245.315 91.7007 244.199" stroke="#C6AB40" stroke-width="3" stroke-linecap="round"/>
<path d="M69.9579 255.168C69.9579 257.357 70.9464 259.955 73.4598 259.955C74.9337 259.955 76.305 259.86 77.0947 258.36C77.7969 257.025 78.1364 255.265 78.1364 253.772" stroke="#C6AB40" stroke-width="3" stroke-linecap="round"/>
<defs>
<filter id="filter0_d_10_832" x="6.5583" y="71.4611" width="128.216" height="124.974" filterUnits="userSpaceOnUse" color-interpolation-filters="sRGB">
<feFlood flood-opacity="0" result="BackgroundImageFix"/>
<feColorMatrix in="SourceAlpha" type="matrix" values="0 0 0 0 0 0 0 0 0 0 0 0 0 0 0 0 0 0 127 0" result="hardAlpha"/>
<feOffset dy="4"/>
<feGaussianBlur stdDeviation="2"/>
<feComposite in2="hardAlpha" operator="out"/>
<feColorMatrix type="matrix" values="0 0 0 0 0 0 0 0 0 0 0 0 0 0 0 0 0 0 0.25 0"/>
<feBlend mode="normal" in2="BackgroundImageFix" result="effect1_dropShadow_10_832"/>
<feBlend mode="normal" in="SourceGraphic" in2="effect1_dropShadow_10_832" result="shape"/>
</filter>
<filter id="filter1_d_10_832" x="25.7679" y="77.4726" width="23.1239" height="23.996" filterUnits="userSpaceOnUse" color-interpolation-filters="sRGB">
<feFlood flood-opacity="0" result="BackgroundImageFix"/>
<feColorMatrix in="SourceAlpha" type="matrix" values="0 0 0 0 0 0 0 0 0 0 0 0 0 0 0 0 0 0 127 0" result="hardAlpha"/>
<feOffset dy="4"/>
<feGaussianBlur stdDeviation="2"/>
<feComposite in2="hardAlpha" operator="out"/>
<feColorMatrix type="matrix" values="0 0 0 0 0 0 0 0 0 0 0 0 0 0 0 0 0 0 0.25 0"/>
<feBlend mode="normal" in2="BackgroundImageFix" result="effect1_dropShadow_10_832"/>
<feBlend mode="normal" in="SourceGraphic" in2="effect1_dropShadow_10_832" result="shape"/>
</filter>
<filter id="filter2_d_10_832" x="0.510239" y="108.462" width="22.619" height="24.4958" filterUnits="userSpaceOnUse" color-interpolation-filters="sRGB">
<feFlood flood-opacity="0" result="BackgroundImageFix"/>
<feColorMatrix in="SourceAlpha" type="matrix" values="0 0 0 0 0 0 0 0 0 0 0 0 0 0 0 0 0 0 127 0" result="hardAlpha"/>
<feOffset dy="4"/>
<feGaussianBlur stdDeviation="2"/>
<feComposite in2="hardAlpha" operator="out"/>
<feColorMatrix type="matrix" values="0 0 0 0 0 0 0 0 0 0 0 0 0 0 0 0 0 0 0.25 0"/>
<feBlend mode="normal" in2="BackgroundImageFix" result="effect1_dropShadow_10_832"/>
<feBlend mode="normal" in="SourceGraphic" in2="effect1_dropShadow_10_832" result="shape"/>
</filter>
<filter id="filter3_d_10_832" x="2.53052" y="149.448" width="24.6396" height="23.496" filterUnits="userSpaceOnUse" color-interpolation-filters="sRGB">
<feFlood flood-opacity="0" result="BackgroundImageFix"/>
<feColorMatrix in="SourceAlpha" type="matrix" values="0 0 0 0 0 0 0 0 0 0 0 0 0 0 0 0 0 0 127 0" result="hardAlpha"/>
<feOffset dy="4"/>
<feGaussianBlur stdDeviation="2"/>
<feComposite in2="hardAlpha" operator="out"/>
<feColorMatrix type="matrix" values="0 0 0 0 0 0 0 0 0 0 0 0 0 0 0 0 0 0 0.25 0"/>
<feBlend mode="normal" in2="BackgroundImageFix" result="effect1_dropShadow_10_832"/>
<feBlend mode="normal" in="SourceGraphic" in2="effect1_dropShadow_10_832" result="shape"/>
</filter>
<filter id="filter4_d_10_832" x="40.9227" y="119.458" width="21.6086" height="23.9963" filterUnits="userSpaceOnUse" color-interpolation-filters="sRGB">
<feFlood flood-opacity="0" result="BackgroundImageFix"/>
<feColorMatrix in="SourceAlpha" type="matrix" values="0 0 0 0 0 0 0 0 0 0 0 0 0 0 0 0 0 0 127 0" result="hardAlpha"/>
<feOffset dy="4"/>
<feGaussianBlur stdDeviation="2"/>
<feComposite in2="hardAlpha" operator="out"/>
<feColorMatrix type="matrix" values="0 0 0 0 0 0 0 0 0 0 0 0 0 0 0 0 0 0 0.25 0"/>
<feBlend mode="normal" in2="BackgroundImageFix" result="effect1_dropShadow_10_832"/>
<feBlend mode="normal" in="SourceGraphic" in2="effect1_dropShadow_10_832" result="shape"/>
</filter>
<filter id="filter5_d_10_832" x="45.9738" y="86.4696" width="22.114" height="22.9963" filterUnits="userSpaceOnUse" color-interpolation-filters="sRGB">
<feFlood flood-opacity="0" result="BackgroundImageFix"/>
<feColorMatrix in="SourceAlpha" type="matrix" values="0 0 0 0 0 0 0 0 0 0 0 0 0 0 0 0 0 0 127 0" result="hardAlpha"/>
<feOffset dy="4"/>
<feGaussianBlur stdDeviation="2"/>
<feComposite in2="hardAlpha" operator="out"/>
<feColorMatrix type="matrix" values="0 0 0 0 0 0 0 0 0 0 0 0 0 0 0 0 0 0 0.25 0"/>
<feBlend mode="normal" in2="BackgroundImageFix" result="effect1_dropShadow_10_832"/>
<feBlend mode="normal" in="SourceGraphic" in2="effect1_dropShadow_10_832" result="shape"/>
</filter>
<filter id="filter6_d_10_832" x="37.8915" y="156.446" width="26.6605" height="26.4953" filterUnits="userSpaceOnUse" color-interpolation-filters="sRGB">
<feFlood flood-opacity="0" result="BackgroundImageFix"/>
<feColorMatrix in="SourceAlpha" type="matrix" values="0 0 0 0 0 0 0 0 0 0 0 0 0 0 0 0 0 0 127 0" result="hardAlpha"/>
<feOffset dy="4"/>
<feGaussianBlur stdDeviation="2"/>
<feComposite in2="hardAlpha" operator="out"/>
<feColorMatrix type="matrix" values="0 0 0 0 0 0 0 0 0 0 0 0 0 0 0 0 0 0 0.25 0"/>
<feBlend mode="normal" in2="BackgroundImageFix" result="effect1_dropShadow_10_832"/>
<feBlend mode="normal" in="SourceGraphic" in2="effect1_dropShadow_10_832" result="shape"/>
</filter>
<filter id="filter7_d_10_832" x="77.2937" y="119.458" width="24.1341" height="24.9955" filterUnits="userSpaceOnUse" color-interpolation-filters="sRGB">
<feFlood flood-opacity="0" result="BackgroundImageFix"/>
<feColorMatrix in="SourceAlpha" type="matrix" values="0 0 0 0 0 0 0 0 0 0 0 0 0 0 0 0 0 0 127 0" result="hardAlpha"/>
<feOffset dy="4"/>
<feGaussianBlur stdDeviation="2"/>
<feComposite in2="hardAlpha" operator="out"/>
<feColorMatrix type="matrix" values="0 0 0 0 0 0 0 0 0 0 0 0 0 0 0 0 0 0 0.25 0"/>
<feBlend mode="normal" in2="BackgroundImageFix" result="effect1_dropShadow_10_832"/>
<feBlend mode="normal" in="SourceGraphic" in2="effect1_dropShadow_10_832" result="shape"/>
</filter>
<filter id="filter8_d_10_832" x="92.4485" y="77.473" width="25.6497" height="23.9958" filterUnits="userSpaceOnUse" color-interpolation-filters="sRGB">
<feFlood flood-opacity="0" result="BackgroundImageFix"/>
<feColorMatrix in="SourceAlpha" type="matrix" values="0 0 0 0 0 0 0 0 0 0 0 0 0 0 0 0 0 0 127 0" result="hardAlpha"/>
<feOffset dy="4"/>
<feGaussianBlur stdDeviation="2"/>
<feComposite in2="hardAlpha" operator="out"/>
<feColorMatrix type="matrix" values="0 0 0 0 0 0 0 0 0 0 0 0 0 0 0 0 0 0 0.25 0"/>
<feBlend mode="normal" in2="BackgroundImageFix" result="effect1_dropShadow_10_832"/>
<feBlend mode="normal" in="SourceGraphic" in2="effect1_dropShadow_10_832" result="shape"/>
</filter>
<filter id="filter9_d_10_832" x="118.716" y="106.463" width="23.6295" height="26.4947" filterUnits="userSpaceOnUse" color-interpolation-filters="sRGB">
<feFlood flood-opacity="0" result="BackgroundImageFix"/>
<feColorMatrix in="SourceAlpha" type="matrix" values="0 0 0 0 0 0 0 0 0 0 0 0 0 0 0 0 0 0 127 0" result="hardAlpha"/>
<feOffset dy="4"/>
<feGaussianBlur stdDeviation="2"/>
<feComposite in2="hardAlpha" operator="out"/>
<feColorMatrix type="matrix" values="0 0 0 0 0 0 0 0 0 0 0 0 0 0 0 0 0 0 0.25 0"/>
<feBlend mode="normal" in2="BackgroundImageFix" result="effect1_dropShadow_10_832"/>
<feBlend mode="normal" in="SourceGraphic" in2="effect1_dropShadow_10_832" result="shape"/>
</filter>
<filter id="filter10_d_10_832" x="76.7883" y="159.445" width="23.1245" height="24.9953" filterUnits="userSpaceOnUse" color-interpolation-filters="sRGB">
<feFlood flood-opacity="0" result="BackgroundImageFix"/>
<feColorMatrix in="SourceAlpha" type="matrix" values="0 0 0 0 0 0 0 0 0 0 0 0 0 0 0 0 0 0 127 0" result="hardAlpha"/>
<feOffset dy="4"/>
<feGaussianBlur stdDeviation="2"/>
<feComposite in2="hardAlpha" operator="out"/>
<feColorMatrix type="matrix" values="0 0 0 0 0 0 0 0 0 0 0 0 0 0 0 0 0 0 0.25 0"/>
<feBlend mode="normal" in2="BackgroundImageFix" result="effect1_dropShadow_10_832"/>
<feBlend mode="normal" in="SourceGraphic" in2="effect1_dropShadow_10_832" result="shape"/>
</filter>
</defs>
</svg>
